<?xml version="1.0" encoding="UTF-8" standalone="no"?>
<!DOCTYPE svg PUBLIC "-//W3C//DTD SVG 1.1//EN"
 "http://www.w3.org/Graphics/SVG/1.1/DTD/svg11.dtd">
<!-- Generated by graphviz version 2.42.4 (0)
 -->
<!-- Title: G Pages: 1 -->
<svg width="857pt" height="2343pt"
 viewBox="0.00 0.00 856.60 2343.10" xmlns="http://www.w3.org/2000/svg" xmlns:xlink="http://www.w3.org/1999/xlink">
<g id="graph0" class="graph" transform="scale(1 1) rotate(0) translate(28.8 2314.3)">
<title>G</title>
<polygon fill="#ffffff" stroke="transparent" points="-28.8,28.8 -28.8,-2314.3 827.8,-2314.3 827.8,28.8 -28.8,28.8"/>
<text text-anchor="middle" x="399.5" y="-2262.3" font-family="DejaVu Sans" font-size="24.00">Danh tính, tài khoản và quyền</text>
<!-- identity.users -->
<g id="node1" class="node">
<title>identity.users</title>
<polygon fill="#315fe8" stroke="transparent" points="649,-637 649,-662 757,-662 757,-637 649,-637"/>
<polygon fill="none" stroke="#d7dfe9" points="649,-637 649,-662 757,-662 757,-637 649,-637"/>
<text text-anchor="start" x="656" y="-648" font-family="DejaVu Sans" font-weight="bold" font-size="10.00" fill="white">identity.users</text>
<polygon fill="none" stroke="#d7dfe9" points="649,-612 649,-637 757,-637 757,-612 649,-612"/>
<text text-anchor="start" x="656" y="-622" font-family="DejaVu Sans" font-size="10.00">Danh tính nhân sự</text>
<polygon fill="none" stroke="#d7dfe9" points="649,-587 649,-612 700,-612 700,-587 649,-587"/>
<text text-anchor="start" x="656" y="-597" font-family="DejaVu Sans" font-size="10.00">PK id</text>
<polygon fill="none" stroke="#d7dfe9" points="700,-587 700,-612 757,-612 757,-587 700,-587"/>
<text text-anchor="start" x="707" y="-597" font-family="DejaVu Sans" font-size="10.00" fill="#66758a">uuid *</text>
<polygon fill="none" stroke="#d7dfe9" points="649,-562 649,-587 700,-587 700,-562 649,-562"/>
<text text-anchor="start" x="656" y="-572" font-family="DejaVu Sans" font-size="10.00">status</text>
<polygon fill="none" stroke="#d7dfe9" points="700,-562 700,-587 757,-587 757,-562 700,-562"/>
<text text-anchor="start" x="707" y="-572" font-family="DejaVu Sans" font-size="10.00" fill="#66758a">text *</text>
<polygon fill="none" stroke="#d7dfe9" points="649,-537 649,-562 700,-562 700,-537 649,-537"/>
<text text-anchor="start" x="656" y="-547" font-family="DejaVu Sans" font-size="10.00">version</text>
<polygon fill="none" stroke="#d7dfe9" points="700,-537 700,-562 757,-562 757,-537 700,-537"/>
<text text-anchor="start" x="707" y="-547" font-family="DejaVu Sans" font-size="10.00" fill="#66758a">integer *</text>
</g>
<!-- identity.staff_sessions -->
<g id="node2" class="node">
<title>identity.staff_sessions</title>
<polygon fill="#315fe8" stroke="transparent" points="327,-1183 327,-1208 482,-1208 482,-1183 327,-1183"/>
<polygon fill="none" stroke="#d7dfe9" points="327,-1183 327,-1208 482,-1208 482,-1183 327,-1183"/>
<text text-anchor="start" x="334" y="-1194" font-family="DejaVu Sans" font-weight="bold" font-size="10.00" fill="white">identity.staff_sessions</text>
<polygon fill="none" stroke="#d7dfe9" points="327,-1158 327,-1183 482,-1183 482,-1158 327,-1158"/>
<text text-anchor="start" x="334" y="-1168" font-family="DejaVu Sans" font-size="10.00">Phiên nhân sự</text>
<polygon fill="none" stroke="#d7dfe9" points="327,-1133 327,-1158 397,-1158 397,-1133 327,-1133"/>
<text text-anchor="start" x="334" y="-1143" font-family="DejaVu Sans" font-size="10.00">PK id</text>
<polygon fill="none" stroke="#d7dfe9" points="397,-1133 397,-1158 482,-1158 482,-1133 397,-1133"/>
<text text-anchor="start" x="404" y="-1143" font-family="DejaVu Sans" font-size="10.00" fill="#66758a">uuid *</text>
<polygon fill="none" stroke="#d7dfe9" points="327,-1108 327,-1133 397,-1133 397,-1108 327,-1108"/>
<text text-anchor="start" x="334" y="-1118" font-family="DejaVu Sans" font-size="10.00">FK user_id</text>
<polygon fill="none" stroke="#d7dfe9" points="397,-1108 397,-1133 482,-1133 482,-1108 397,-1108"/>
<text text-anchor="start" x="404" y="-1118" font-family="DejaVu Sans" font-size="10.00" fill="#66758a">uuid *</text>
<polygon fill="none" stroke="#d7dfe9" points="327,-1083 327,-1108 397,-1108 397,-1083 327,-1083"/>
<text text-anchor="start" x="334" y="-1093" font-family="DejaVu Sans" font-size="10.00">token_hash</text>
<polygon fill="none" stroke="#d7dfe9" points="397,-1083 397,-1108 482,-1108 482,-1083 397,-1083"/>
<text text-anchor="start" x="404" y="-1093" font-family="DejaVu Sans" font-size="10.00" fill="#66758a">text *</text>
<polygon fill="none" stroke="#d7dfe9" points="327,-1058 327,-1083 397,-1083 397,-1058 327,-1058"/>
<text text-anchor="start" x="334" y="-1068" font-family="DejaVu Sans" font-size="10.00">revoked_at</text>
<polygon fill="none" stroke="#d7dfe9" points="397,-1058 397,-1083 482,-1083 482,-1058 397,-1058"/>
<text text-anchor="start" x="404" y="-1068" font-family="DejaVu Sans" font-size="10.00" fill="#66758a">timestamptz ?</text>
<polygon fill="none" stroke="#d7dfe9" points="327,-1033 327,-1058 397,-1058 397,-1033 327,-1033"/>
<text text-anchor="start" x="334" y="-1043" font-family="DejaVu Sans" font-size="10.00">version</text>
<polygon fill="none" stroke="#d7dfe9" points="397,-1033 397,-1058 482,-1058 482,-1033 397,-1033"/>
<text text-anchor="start" x="404" y="-1043" font-family="DejaVu Sans" font-size="10.00" fill="#66758a">integer *</text>
</g>
<!-- identity.staff_sessions&#45;&gt;identity.users -->
<g id="edge1" class="edge">
<title>identity.staff_sessions:e&#45;&gt;identity.users:w</title>
<g id="a_edge1"><a xlink:title="user_id → id">
<path fill="none" stroke="#8191a8" d="M398,-1120C398,-1120 504,-1015 504,-1015 504,-1015 627.94,-656.95 645.85,-605.2"/>
<polygon fill="#8191a8" stroke="#8191a8" points="648.02,-605.89 648,-599 643.72,-604.4 648.02,-605.89"/>
</a>
</g>
<text text-anchor="middle" x="555.5" y="-894.6" font-family="DejaVu Sans" font-size="8.00">N → 1</text>
</g>
<!-- identity.auth_challenges -->
<g id="node3" class="node">
<title>identity.auth_challenges</title>
<polygon fill="#315fe8" stroke="transparent" points="306,-835 306,-860 503,-860 503,-835 306,-835"/>
<polygon fill="none" stroke="#d7dfe9" points="306,-835 306,-860 503,-860 503,-835 306,-835"/>
<text text-anchor="start" x="313" y="-846" font-family="DejaVu Sans" font-weight="bold" font-size="10.00" fill="white">identity.auth_challenges</text>
<polygon fill="none" stroke="#d7dfe9" points="306,-810 306,-835 503,-835 503,-810 306,-810"/>
<text text-anchor="start" x="313" y="-820" font-family="DejaVu Sans" font-size="10.00">Xác minh email / khôi phục mật khẩu</text>
<polygon fill="none" stroke="#d7dfe9" points="306,-785 306,-810 397,-810 397,-785 306,-785"/>
<text text-anchor="start" x="313" y="-795" font-family="DejaVu Sans" font-size="10.00">PK id</text>
<polygon fill="none" stroke="#d7dfe9" points="397,-785 397,-810 503,-810 503,-785 397,-785"/>
<text text-anchor="start" x="404" y="-795" font-family="DejaVu Sans" font-size="10.00" fill="#66758a">uuid *</text>
<polygon fill="none" stroke="#d7dfe9" points="306,-760 306,-785 397,-785 397,-760 306,-760"/>
<text text-anchor="start" x="313" y="-770" font-family="DejaVu Sans" font-size="10.00">FK user_id</text>
<polygon fill="none" stroke="#d7dfe9" points="397,-760 397,-785 503,-785 503,-760 397,-760"/>
<text text-anchor="start" x="404" y="-770" font-family="DejaVu Sans" font-size="10.00" fill="#66758a">uuid ?</text>
<polygon fill="none" stroke="#d7dfe9" points="306,-735 306,-760 397,-760 397,-735 306,-735"/>
<text text-anchor="start" x="313" y="-745" font-family="DejaVu Sans" font-size="10.00">token_hash</text>
<polygon fill="none" stroke="#d7dfe9" points="397,-735 397,-760 503,-760 503,-735 397,-735"/>
<text text-anchor="start" x="404" y="-745" font-family="DejaVu Sans" font-size="10.00" fill="#66758a">text *</text>
<polygon fill="none" stroke="#d7dfe9" points="306,-710 306,-735 397,-735 397,-710 306,-710"/>
<text text-anchor="start" x="313" y="-720" font-family="DejaVu Sans" font-size="10.00">expires_at</text>
<polygon fill="none" stroke="#d7dfe9" points="397,-710 397,-735 503,-735 503,-710 397,-710"/>
<text text-anchor="start" x="404" y="-720" font-family="DejaVu Sans" font-size="10.00" fill="#66758a">timestamptz *</text>
<polygon fill="none" stroke="#d7dfe9" points="306,-685 306,-710 397,-710 397,-685 306,-685"/>
<text text-anchor="start" x="313" y="-695" font-family="DejaVu Sans" font-size="10.00">version</text>
<polygon fill="none" stroke="#d7dfe9" points="397,-685 397,-710 503,-710 503,-685 397,-685"/>
<text text-anchor="start" x="404" y="-695" font-family="DejaVu Sans" font-size="10.00" fill="#66758a">integer *</text>
</g>
<!-- identity.auth_challenges&#45;&gt;identity.users -->
<g id="edge2" class="edge">
<title>identity.auth_challenges:e&#45;&gt;identity.users:w</title>
<g id="a_edge2"><a xlink:title="user_id → id">
<path fill="none" stroke="#8191a8" d="M398,-772C398,-772 605.1,-628.69 642.31,-602.94"/>
<polygon fill="#8191a8" stroke="#8191a8" points="643.95,-604.57 648,-599 641.36,-600.83 643.95,-604.57"/>
</a>
</g>
<text text-anchor="middle" x="555.5" y="-672.6" font-family="DejaVu Sans" font-size="8.00">N → 1</text>
</g>
<!-- identity.rate_limit_buckets -->
<g id="node4" class="node">
<title>identity.rate_limit_buckets</title>
<polygon fill="#315fe8" stroke="transparent" points="18.5,-2226 18.5,-2251 183.5,-2251 183.5,-2226 18.5,-2226"/>
<polygon fill="none" stroke="#d7dfe9" points="18.5,-2226 18.5,-2251 183.5,-2251 183.5,-2226 18.5,-2226"/>
<text text-anchor="start" x="25.5" y="-2237" font-family="DejaVu Sans" font-weight="bold" font-size="10.00" fill="white">identity.rate_limit_buckets</text>
<polygon fill="none" stroke="#d7dfe9" points="18.5,-2201 18.5,-2226 183.5,-2226 183.5,-2201 18.5,-2201"/>
<text text-anchor="start" x="25.5" y="-2211" font-family="DejaVu Sans" font-size="10.00">Giới hạn tần suất tối thiểu</text>
<polygon fill="none" stroke="#d7dfe9" points="18.5,-2176 18.5,-2201 91.5,-2201 91.5,-2176 18.5,-2176"/>
<text text-anchor="start" x="25.5" y="-2186" font-family="DejaVu Sans" font-size="10.00">PK id</text>
<polygon fill="none" stroke="#d7dfe9" points="91.5,-2176 91.5,-2201 183.5,-2201 183.5,-2176 91.5,-2176"/>
<text text-anchor="start" x="98.5" y="-2186" font-family="DejaVu Sans" font-size="10.00" fill="#66758a">uuid *</text>
<polygon fill="none" stroke="#d7dfe9" points="18.5,-2151 18.5,-2176 91.5,-2176 91.5,-2151 18.5,-2151"/>
<text text-anchor="start" x="25.5" y="-2161" font-family="DejaVu Sans" font-size="10.00">expires_at</text>
<polygon fill="none" stroke="#d7dfe9" points="91.5,-2151 91.5,-2176 183.5,-2176 183.5,-2151 91.5,-2151"/>
<text text-anchor="start" x="98.5" y="-2161" font-family="DejaVu Sans" font-size="10.00" fill="#66758a">timestamptz *</text>
<polygon fill="none" stroke="#d7dfe9" points="18.5,-2126 18.5,-2151 91.5,-2151 91.5,-2126 18.5,-2126"/>
<text text-anchor="start" x="25.5" y="-2136" font-family="DejaVu Sans" font-size="10.00">version</text>
<polygon fill="none" stroke="#d7dfe9" points="91.5,-2126 91.5,-2151 183.5,-2151 183.5,-2126 91.5,-2126"/>
<text text-anchor="start" x="98.5" y="-2136" font-family="DejaVu Sans" font-size="10.00" fill="#66758a">integer *</text>
</g>
<!-- identity.mail_outbox -->
<g id="node5" class="node">
<title>identity.mail_outbox</title>
<polygon fill="#315fe8" stroke="transparent" points="319,-1605 319,-1630 490,-1630 490,-1605 319,-1605"/>
<polygon fill="none" stroke="#d7dfe9" points="319,-1605 319,-1630 490,-1630 490,-1605 319,-1605"/>
<text text-anchor="start" x="326" y="-1616" font-family="DejaVu Sans" font-weight="bold" font-size="10.00" fill="white">identity.mail_outbox</text>
<polygon fill="none" stroke="#d7dfe9" points="319,-1580 319,-1605 490,-1605 490,-1580 319,-1580"/>
<text text-anchor="start" x="326" y="-1590" font-family="DejaVu Sans" font-size="10.00">Email bảo mật, payload mã hóa</text>
<polygon fill="none" stroke="#d7dfe9" points="319,-1555 319,-1580 414,-1580 414,-1555 319,-1555"/>
<text text-anchor="start" x="326" y="-1565" font-family="DejaVu Sans" font-size="10.00">PK id</text>
<polygon fill="none" stroke="#d7dfe9" points="414,-1555 414,-1580 490,-1580 490,-1555 414,-1555"/>
<text text-anchor="start" x="421" y="-1565" font-family="DejaVu Sans" font-size="10.00" fill="#66758a">uuid *</text>
<polygon fill="none" stroke="#d7dfe9" points="319,-1530 319,-1555 414,-1555 414,-1530 319,-1530"/>
<text text-anchor="start" x="326" y="-1540" font-family="DejaVu Sans" font-size="10.00">FK user_id</text>
<polygon fill="none" stroke="#d7dfe9" points="414,-1530 414,-1555 490,-1555 490,-1530 414,-1530"/>
<text text-anchor="start" x="421" y="-1540" font-family="DejaVu Sans" font-size="10.00" fill="#66758a">uuid ?</text>
<polygon fill="none" stroke="#d7dfe9" points="319,-1505 319,-1530 414,-1530 414,-1505 319,-1505"/>
<text text-anchor="start" x="326" y="-1515" font-family="DejaVu Sans" font-size="10.00">FK school_id</text>
<polygon fill="none" stroke="#d7dfe9" points="414,-1505 414,-1530 490,-1530 490,-1505 414,-1505"/>
<text text-anchor="start" x="421" y="-1515" font-family="DejaVu Sans" font-size="10.00" fill="#66758a">uuid ?</text>
<polygon fill="none" stroke="#d7dfe9" points="319,-1480 319,-1505 414,-1505 414,-1480 319,-1480"/>
<text text-anchor="start" x="326" y="-1490" font-family="DejaVu Sans" font-size="10.00">status</text>
<polygon fill="none" stroke="#d7dfe9" points="414,-1480 414,-1505 490,-1505 490,-1480 414,-1480"/>
<text text-anchor="start" x="421" y="-1490" font-family="DejaVu Sans" font-size="10.00" fill="#66758a">text *</text>
<polygon fill="none" stroke="#d7dfe9" points="319,-1455 319,-1480 414,-1480 414,-1455 319,-1455"/>
<text text-anchor="start" x="326" y="-1465" font-family="DejaVu Sans" font-size="10.00">version</text>
<polygon fill="none" stroke="#d7dfe9" points="414,-1455 414,-1480 490,-1480 490,-1455 414,-1455"/>
<text text-anchor="start" x="421" y="-1465" font-family="DejaVu Sans" font-size="10.00" fill="#66758a">integer *</text>
</g>
<!-- identity.mail_outbox&#45;&gt;identity.users -->
<g id="edge3" class="edge">
<title>identity.mail_outbox:e&#45;&gt;identity.users:w</title>
<g id="a_edge3"><a xlink:title="user_id → id">
<path fill="none" stroke="#8191a8" d="M415,-1542C415,-1542 567,-1514 567,-1514 567,-1514 640.13,-687.87 647.42,-605.58"/>
<polygon fill="#8191a8" stroke="#8191a8" points="649.69,-605.68 648,-599 645.16,-605.27 649.69,-605.68"/>
</a>
</g>
<text text-anchor="middle" x="555.5" y="-1520.6" font-family="DejaVu Sans" font-size="8.00">N → 1</text>
</g>
<!-- platform.schools -->
<g id="node6" class="node">
<title>platform.schools</title>
<polygon fill="#98a4b3" stroke="transparent" points="607,-1626 607,-1651 799,-1651 799,-1626 607,-1626"/>
<polygon fill="none" stroke="#d7dfe9" points="607,-1626 607,-1651 799,-1651 799,-1626 607,-1626"/>
<text text-anchor="start" x="614" y="-1637" font-family="DejaVu Sans" font-weight="bold" font-size="10.00" fill="white">platform.schools</text>
<polygon fill="none" stroke="#d7dfe9" points="607,-1601 607,-1626 799,-1626 799,-1601 607,-1601"/>
<text text-anchor="start" x="614" y="-1611" font-family="DejaVu Sans" font-size="10.00">Không gian trường học [ngoài nhóm]</text>
<polygon fill="none" stroke="#d7dfe9" points="607,-1576 607,-1601 700,-1601 700,-1576 607,-1576"/>
<text text-anchor="start" x="614" y="-1586" font-family="DejaVu Sans" font-size="10.00">PK id</text>
<polygon fill="none" stroke="#d7dfe9" points="700,-1576 700,-1601 799,-1601 799,-1576 700,-1576"/>
<text text-anchor="start" x="707" y="-1586" font-family="DejaVu Sans" font-size="10.00" fill="#66758a">uuid *</text>
</g>
<!-- identity.mail_outbox&#45;&gt;platform.schools -->
<g id="edge4" class="edge">
<title>identity.mail_outbox:e&#45;&gt;platform.schools:w</title>
<g id="a_edge4"><a xlink:title="school_id → id">
<path fill="none" stroke="#8191a8" d="M415,-1517C415,-1517 544,-1505 544,-1505 544,-1505 567,-1505 567,-1505 567,-1505 594.95,-1563 604.12,-1582.03"/>
<polygon fill="#8191a8" stroke="#8191a8" points="602.13,-1583.13 607,-1588 606.23,-1581.16 602.13,-1583.13"/>
</a>
</g>
<text text-anchor="middle" x="555.5" y="-1507.6" font-family="DejaVu Sans" font-size="8.00">N → 1</text>
</g>
<!-- platform.operator_grants -->
<g id="node7" class="node">
<title>platform.operator_grants</title>
<polygon fill="#315fe8" stroke="transparent" points="325,-488 325,-513 484,-513 484,-488 325,-488"/>
<polygon fill="none" stroke="#d7dfe9" points="325,-488 325,-513 484,-513 484,-488 325,-488"/>
<text text-anchor="start" x="332" y="-499" font-family="DejaVu Sans" font-weight="bold" font-size="10.00" fill="white">platform.operator_grants</text>
<polygon fill="none" stroke="#d7dfe9" points="325,-463 325,-488 484,-488 484,-463 325,-463"/>
<text text-anchor="start" x="332" y="-473" font-family="DejaVu Sans" font-size="10.00">Quyền vận hành nền tảng</text>
<polygon fill="none" stroke="#d7dfe9" points="325,-438 325,-463 396,-463 396,-438 325,-438"/>
<text text-anchor="start" x="332" y="-448" font-family="DejaVu Sans" font-size="10.00">PK id</text>
<polygon fill="none" stroke="#d7dfe9" points="396,-438 396,-463 484,-463 484,-438 396,-438"/>
<text text-anchor="start" x="403" y="-448" font-family="DejaVu Sans" font-size="10.00" fill="#66758a">uuid *</text>
<polygon fill="none" stroke="#d7dfe9" points="325,-413 325,-438 396,-438 396,-413 325,-413"/>
<text text-anchor="start" x="332" y="-423" font-family="DejaVu Sans" font-size="10.00">FK user_id</text>
<polygon fill="none" stroke="#d7dfe9" points="396,-413 396,-438 484,-438 484,-413 396,-413"/>
<text text-anchor="start" x="403" y="-423" font-family="DejaVu Sans" font-size="10.00" fill="#66758a">uuid *</text>
<polygon fill="none" stroke="#d7dfe9" points="325,-388 325,-413 396,-413 396,-388 325,-388"/>
<text text-anchor="start" x="332" y="-398" font-family="DejaVu Sans" font-size="10.00">valid_from</text>
<polygon fill="none" stroke="#d7dfe9" points="396,-388 396,-413 484,-413 484,-388 396,-388"/>
<text text-anchor="start" x="403" y="-398" font-family="DejaVu Sans" font-size="10.00" fill="#66758a">timestamptz *</text>
<polygon fill="none" stroke="#d7dfe9" points="325,-363 325,-388 396,-388 396,-363 325,-363"/>
<text text-anchor="start" x="332" y="-373" font-family="DejaVu Sans" font-size="10.00">valid_until</text>
<polygon fill="none" stroke="#d7dfe9" points="396,-363 396,-388 484,-388 484,-363 396,-363"/>
<text text-anchor="start" x="403" y="-373" font-family="DejaVu Sans" font-size="10.00" fill="#66758a">timestamptz ?</text>
<polygon fill="none" stroke="#d7dfe9" points="325,-338 325,-363 396,-363 396,-338 325,-338"/>
<text text-anchor="start" x="332" y="-348" font-family="DejaVu Sans" font-size="10.00">revoked_at</text>
<polygon fill="none" stroke="#d7dfe9" points="396,-338 396,-363 484,-363 484,-338 396,-338"/>
<text text-anchor="start" x="403" y="-348" font-family="DejaVu Sans" font-size="10.00" fill="#66758a">timestamptz ?</text>
<polygon fill="none" stroke="#d7dfe9" points="325,-313 325,-338 396,-338 396,-313 325,-313"/>
<text text-anchor="start" x="332" y="-323" font-family="DejaVu Sans" font-size="10.00">version</text>
<polygon fill="none" stroke="#d7dfe9" points="396,-313 396,-338 484,-338 484,-313 396,-313"/>
<text text-anchor="start" x="403" y="-323" font-family="DejaVu Sans" font-size="10.00" fill="#66758a">integer *</text>
</g>
<!-- platform.operator_grants&#45;&gt;identity.users -->
<g id="edge5" class="edge">
<title>platform.operator_grants:e&#45;&gt;identity.users:w</title>
<g id="a_edge5"><a xlink:title="user_id → id">
<path fill="none" stroke="#8191a8" d="M397,-426C397,-426 604.92,-569.31 642.29,-595.06"/>
<polygon fill="#8191a8" stroke="#8191a8" points="641.36,-597.18 648,-599 643.94,-593.44 641.36,-597.18"/>
</a>
</g>
<text text-anchor="middle" x="555.5" y="-545.6" font-family="DejaVu Sans" font-size="8.00">N → 1</text>
</g>
<!-- app.memberships -->
<g id="node8" class="node">
<title>app.memberships</title>
<polygon fill="#315fe8" stroke="transparent" points="326,-1394 326,-1419 483,-1419 483,-1394 326,-1394"/>
<polygon fill="none" stroke="#d7dfe9" points="326,-1394 326,-1419 483,-1419 483,-1394 326,-1394"/>
<text text-anchor="start" x="333" y="-1405" font-family="DejaVu Sans" font-weight="bold" font-size="10.00" fill="white">app.memberships</text>
<polygon fill="none" stroke="#d7dfe9" points="326,-1369 326,-1394 483,-1394 483,-1369 326,-1369"/>
<text text-anchor="start" x="333" y="-1379" font-family="DejaVu Sans" font-size="10.00">Thành viên và hồ sơ công tác</text>
<polygon fill="none" stroke="#d7dfe9" points="326,-1344 326,-1369 414,-1369 414,-1344 326,-1344"/>
<text text-anchor="start" x="333" y="-1354" font-family="DejaVu Sans" font-size="10.00">PK id</text>
<polygon fill="none" stroke="#d7dfe9" points="414,-1344 414,-1369 483,-1369 483,-1344 414,-1344"/>
<text text-anchor="start" x="421" y="-1354" font-family="DejaVu Sans" font-size="10.00" fill="#66758a">uuid *</text>
<polygon fill="none" stroke="#d7dfe9" points="326,-1319 326,-1344 414,-1344 414,-1319 326,-1319"/>
<text text-anchor="start" x="333" y="-1329" font-family="DejaVu Sans" font-size="10.00">FK school_id</text>
<polygon fill="none" stroke="#d7dfe9" points="414,-1319 414,-1344 483,-1344 483,-1319 414,-1319"/>
<text text-anchor="start" x="421" y="-1329" font-family="DejaVu Sans" font-size="10.00" fill="#66758a">uuid *</text>
<polygon fill="none" stroke="#d7dfe9" points="326,-1294 326,-1319 414,-1319 414,-1294 326,-1294"/>
<text text-anchor="start" x="333" y="-1304" font-family="DejaVu Sans" font-size="10.00">FK user_id</text>
<polygon fill="none" stroke="#d7dfe9" points="414,-1294 414,-1319 483,-1319 483,-1294 414,-1294"/>
<text text-anchor="start" x="421" y="-1304" font-family="DejaVu Sans" font-size="10.00" fill="#66758a">uuid *</text>
<polygon fill="none" stroke="#d7dfe9" points="326,-1269 326,-1294 414,-1294 414,-1269 326,-1269"/>
<text text-anchor="start" x="333" y="-1279" font-family="DejaVu Sans" font-size="10.00">status</text>
<polygon fill="none" stroke="#d7dfe9" points="414,-1269 414,-1294 483,-1294 483,-1269 414,-1269"/>
<text text-anchor="start" x="421" y="-1279" font-family="DejaVu Sans" font-size="10.00" fill="#66758a">text *</text>
<polygon fill="none" stroke="#d7dfe9" points="326,-1244 326,-1269 414,-1269 414,-1244 326,-1244"/>
<text text-anchor="start" x="333" y="-1254" font-family="DejaVu Sans" font-size="10.00">version</text>
<polygon fill="none" stroke="#d7dfe9" points="414,-1244 414,-1269 483,-1269 483,-1244 414,-1244"/>
<text text-anchor="start" x="421" y="-1254" font-family="DejaVu Sans" font-size="10.00" fill="#66758a">integer *</text>
</g>
<!-- app.memberships&#45;&gt;identity.users -->
<g id="edge7" class="edge">
<title>app.memberships:e&#45;&gt;identity.users:w</title>
<g id="a_edge7"><a xlink:title="user_id → id">
<path fill="none" stroke="#8191a8" d="M415,-1306C415,-1306 504,-1227 504,-1227 504,-1227 631.09,-672.74 646.48,-605.63"/>
<polygon fill="#8191a8" stroke="#8191a8" points="648.76,-605.84 648,-599 644.33,-604.83 648.76,-605.84"/>
</a>
</g>
<text text-anchor="middle" x="555.5" y="-1043.6" font-family="DejaVu Sans" font-size="8.00">N → 1</text>
</g>
<!-- app.memberships&#45;&gt;platform.schools -->
<g id="edge6" class="edge">
<title>app.memberships:e&#45;&gt;platform.schools:w</title>
<g id="a_edge6"><a xlink:title="school_id → id">
<path fill="none" stroke="#8191a8" d="M415,-1331C415,-1331 567,-1487 567,-1487 567,-1487 595.74,-1559.57 604.5,-1581.68"/>
<polygon fill="#8191a8" stroke="#8191a8" points="602.49,-1582.79 607,-1588 606.72,-1581.12 602.49,-1582.79"/>
</a>
</g>
<text text-anchor="middle" x="555.5" y="-1489.6" font-family="DejaVu Sans" font-size="8.00">N → 1</text>
</g>
<!-- app.roles -->
<g id="node9" class="node">
<title>app.roles</title>
<polygon fill="#315fe8" stroke="transparent" points="337,-1816 337,-1841 472,-1841 472,-1816 337,-1816"/>
<polygon fill="none" stroke="#d7dfe9" points="337,-1816 337,-1841 472,-1841 472,-1816 337,-1816"/>
<text text-anchor="start" x="344" y="-1827" font-family="DejaVu Sans" font-weight="bold" font-size="10.00" fill="white">app.roles</text>
<polygon fill="none" stroke="#d7dfe9" points="337,-1791 337,-1816 472,-1816 472,-1791 337,-1791"/>
<text text-anchor="start" x="344" y="-1801" font-family="DejaVu Sans" font-size="10.00">Mẫu nhiệm vụ tại trường</text>
<polygon fill="none" stroke="#d7dfe9" points="337,-1766 337,-1791 414,-1791 414,-1766 337,-1766"/>
<text text-anchor="start" x="344" y="-1776" font-family="DejaVu Sans" font-size="10.00">PK id</text>
<polygon fill="none" stroke="#d7dfe9" points="414,-1766 414,-1791 472,-1791 472,-1766 414,-1766"/>
<text text-anchor="start" x="421" y="-1776" font-family="DejaVu Sans" font-size="10.00" fill="#66758a">uuid *</text>
<polygon fill="none" stroke="#d7dfe9" points="337,-1741 337,-1766 414,-1766 414,-1741 337,-1741"/>
<text text-anchor="start" x="344" y="-1751" font-family="DejaVu Sans" font-size="10.00">FK school_id</text>
<polygon fill="none" stroke="#d7dfe9" points="414,-1741 414,-1766 472,-1766 472,-1741 414,-1741"/>
<text text-anchor="start" x="421" y="-1751" font-family="DejaVu Sans" font-size="10.00" fill="#66758a">uuid *</text>
<polygon fill="none" stroke="#d7dfe9" points="337,-1716 337,-1741 414,-1741 414,-1716 337,-1716"/>
<text text-anchor="start" x="344" y="-1726" font-family="DejaVu Sans" font-size="10.00">code</text>
<polygon fill="none" stroke="#d7dfe9" points="414,-1716 414,-1741 472,-1741 472,-1716 414,-1716"/>
<text text-anchor="start" x="421" y="-1726" font-family="DejaVu Sans" font-size="10.00" fill="#66758a">text *</text>
<polygon fill="none" stroke="#d7dfe9" points="337,-1691 337,-1716 414,-1716 414,-1691 337,-1691"/>
<text text-anchor="start" x="344" y="-1701" font-family="DejaVu Sans" font-size="10.00">status</text>
<polygon fill="none" stroke="#d7dfe9" points="414,-1691 414,-1716 472,-1716 472,-1691 414,-1691"/>
<text text-anchor="start" x="421" y="-1701" font-family="DejaVu Sans" font-size="10.00" fill="#66758a">text *</text>
<polygon fill="none" stroke="#d7dfe9" points="337,-1666 337,-1691 414,-1691 414,-1666 337,-1666"/>
<text text-anchor="start" x="344" y="-1676" font-family="DejaVu Sans" font-size="10.00">version</text>
<polygon fill="none" stroke="#d7dfe9" points="414,-1666 414,-1691 472,-1691 472,-1666 414,-1666"/>
<text text-anchor="start" x="421" y="-1676" font-family="DejaVu Sans" font-size="10.00" fill="#66758a">integer *</text>
</g>
<!-- app.roles&#45;&gt;platform.schools -->
<g id="edge8" class="edge">
<title>app.roles:e&#45;&gt;platform.schools:w</title>
<g id="a_edge8"><a xlink:title="school_id → id">
<path fill="none" stroke="#8191a8" d="M415,-1753C415,-1753 571.33,-1618.65 601.86,-1592.41"/>
<polygon fill="#8191a8" stroke="#8191a8" points="603.55,-1593.96 607,-1588 600.59,-1590.51 603.55,-1593.96"/>
</a>
</g>
<text text-anchor="middle" x="555.5" y="-1643.6" font-family="DejaVu Sans" font-size="8.00">N → 1</text>
</g>
<!-- app.role_permissions -->
<g id="node10" class="node">
<title>app.role_permissions</title>
<polygon fill="#315fe8" stroke="transparent" points="28.5,-2066 28.5,-2091 173.5,-2091 173.5,-2066 28.5,-2066"/>
<polygon fill="none" stroke="#d7dfe9" points="28.5,-2066 28.5,-2091 173.5,-2091 173.5,-2066 28.5,-2066"/>
<text text-anchor="start" x="35.5" y="-2077" font-family="DejaVu Sans" font-weight="bold" font-size="10.00" fill="white">app.role_permissions</text>
<polygon fill="none" stroke="#d7dfe9" points="28.5,-2041 28.5,-2066 173.5,-2066 173.5,-2041 28.5,-2041"/>
<text text-anchor="start" x="35.5" y="-2051" font-family="DejaVu Sans" font-size="10.00">Hành động của mẫu quyền</text>
<polygon fill="none" stroke="#d7dfe9" points="28.5,-2016 28.5,-2041 110.5,-2041 110.5,-2016 28.5,-2016"/>
<text text-anchor="start" x="35.5" y="-2026" font-family="DejaVu Sans" font-size="10.00">PK id</text>
<polygon fill="none" stroke="#d7dfe9" points="110.5,-2016 110.5,-2041 173.5,-2041 173.5,-2016 110.5,-2016"/>
<text text-anchor="start" x="117.5" y="-2026" font-family="DejaVu Sans" font-size="10.00" fill="#66758a">uuid *</text>
<polygon fill="none" stroke="#d7dfe9" points="28.5,-1991 28.5,-2016 110.5,-2016 110.5,-1991 28.5,-1991"/>
<text text-anchor="start" x="35.5" y="-2001" font-family="DejaVu Sans" font-size="10.00">FK school_id</text>
<polygon fill="none" stroke="#d7dfe9" points="110.5,-1991 110.5,-2016 173.5,-2016 173.5,-1991 110.5,-1991"/>
<text text-anchor="start" x="117.5" y="-2001" font-family="DejaVu Sans" font-size="10.00" fill="#66758a">uuid *</text>
<polygon fill="none" stroke="#d7dfe9" points="28.5,-1966 28.5,-1991 110.5,-1991 110.5,-1966 28.5,-1966"/>
<text text-anchor="start" x="35.5" y="-1976" font-family="DejaVu Sans" font-size="10.00">FK role_id</text>
<polygon fill="none" stroke="#d7dfe9" points="110.5,-1966 110.5,-1991 173.5,-1991 173.5,-1966 110.5,-1966"/>
<text text-anchor="start" x="117.5" y="-1976" font-family="DejaVu Sans" font-size="10.00" fill="#66758a">uuid *</text>
<polygon fill="none" stroke="#d7dfe9" points="28.5,-1941 28.5,-1966 110.5,-1966 110.5,-1941 28.5,-1941"/>
<text text-anchor="start" x="35.5" y="-1951" font-family="DejaVu Sans" font-size="10.00">version</text>
<polygon fill="none" stroke="#d7dfe9" points="110.5,-1941 110.5,-1966 173.5,-1966 173.5,-1941 110.5,-1941"/>
<text text-anchor="start" x="117.5" y="-1951" font-family="DejaVu Sans" font-size="10.00" fill="#66758a">integer *</text>
</g>
<!-- app.role_permissions&#45;&gt;platform.schools -->
<g id="edge9" class="edge">
<title>app.role_permissions:e&#45;&gt;platform.schools:w</title>
<g id="a_edge9"><a xlink:title="school_id → id">
<path fill="none" stroke="#8191a8" d="M111.5,-2003C111.5,-2003 567,-1942 567,-1942 567,-1942 600.71,-1643.7 606.24,-1594.76"/>
<polygon fill="#8191a8" stroke="#8191a8" points="608.53,-1594.71 607,-1588 604.01,-1594.2 608.53,-1594.71"/>
</a>
</g>
<text text-anchor="middle" x="404" y="-1978.6" font-family="DejaVu Sans" font-size="8.00">N → 1</text>
</g>
<!-- app.role_permissions&#45;&gt;app.roles -->
<g id="edge10" class="edge">
<title>app.role_permissions:e&#45;&gt;app.roles:w</title>
<g id="a_edge10"><a xlink:title="school_id, role_id → school_id, id">
<path fill="none" stroke="#8191a8" d="M111.5,-1978C111.5,-1978 297.47,-1813.15 330.89,-1783.53"/>
<polygon fill="#8191a8" stroke="#8191a8" points="332.64,-1785.01 336,-1779 329.63,-1781.61 332.64,-1785.01"/>
</a>
</g>
<text text-anchor="middle" x="252.5" y="-1862.6" font-family="DejaVu Sans" font-size="8.00">N → 1</text>
</g>
<!-- app.role_grants -->
<g id="node11" class="node">
<title>app.role_grants</title>
<polygon fill="#315fe8" stroke="transparent" points="0.5,-1165 0.5,-1190 201.5,-1190 201.5,-1165 0.5,-1165"/>
<polygon fill="none" stroke="#d7dfe9" points="0.5,-1165 0.5,-1190 201.5,-1190 201.5,-1165 0.5,-1165"/>
<text text-anchor="start" x="7.5" y="-1176" font-family="DejaVu Sans" font-weight="bold" font-size="10.00" fill="white">app.role_grants</text>
<polygon fill="none" stroke="#d7dfe9" points="0.5,-1140 0.5,-1165 201.5,-1165 201.5,-1140 0.5,-1140"/>
<text text-anchor="start" x="7.5" y="-1150" font-family="DejaVu Sans" font-size="10.00">Giao quyền đúng phạm vi và thời gian</text>
<polygon fill="none" stroke="#d7dfe9" points="0.5,-1115 0.5,-1140 101.5,-1140 101.5,-1115 0.5,-1115"/>
<text text-anchor="start" x="7.5" y="-1125" font-family="DejaVu Sans" font-size="10.00">PK id</text>
<polygon fill="none" stroke="#d7dfe9" points="101.5,-1115 101.5,-1140 201.5,-1140 201.5,-1115 101.5,-1115"/>
<text text-anchor="start" x="108.5" y="-1125" font-family="DejaVu Sans" font-size="10.00" fill="#66758a">uuid *</text>
<polygon fill="none" stroke="#d7dfe9" points="0.5,-1090 0.5,-1115 101.5,-1115 101.5,-1090 0.5,-1090"/>
<text text-anchor="start" x="7.5" y="-1100" font-family="DejaVu Sans" font-size="10.00">FK school_id</text>
<polygon fill="none" stroke="#d7dfe9" points="101.5,-1090 101.5,-1115 201.5,-1115 201.5,-1090 101.5,-1090"/>
<text text-anchor="start" x="108.5" y="-1100" font-family="DejaVu Sans" font-size="10.00" fill="#66758a">uuid *</text>
<polygon fill="none" stroke="#d7dfe9" points="0.5,-1065 0.5,-1090 101.5,-1090 101.5,-1065 0.5,-1065"/>
<text text-anchor="start" x="7.5" y="-1075" font-family="DejaVu Sans" font-size="10.00">FK member_id</text>
<polygon fill="none" stroke="#d7dfe9" points="101.5,-1065 101.5,-1090 201.5,-1090 201.5,-1065 101.5,-1065"/>
<text text-anchor="start" x="108.5" y="-1075" font-family="DejaVu Sans" font-size="10.00" fill="#66758a">uuid *</text>
<polygon fill="none" stroke="#d7dfe9" points="0.5,-1040 0.5,-1065 101.5,-1065 101.5,-1040 0.5,-1040"/>
<text text-anchor="start" x="7.5" y="-1050" font-family="DejaVu Sans" font-size="10.00">FK role_id</text>
<polygon fill="none" stroke="#d7dfe9" points="101.5,-1040 101.5,-1065 201.5,-1065 201.5,-1040 101.5,-1040"/>
<text text-anchor="start" x="108.5" y="-1050" font-family="DejaVu Sans" font-size="10.00" fill="#66758a">uuid *</text>
<polygon fill="none" stroke="#d7dfe9" points="0.5,-1015 0.5,-1040 101.5,-1040 101.5,-1015 0.5,-1015"/>
<text text-anchor="start" x="7.5" y="-1025" font-family="DejaVu Sans" font-size="10.00">FK class_id</text>
<polygon fill="none" stroke="#d7dfe9" points="101.5,-1015 101.5,-1040 201.5,-1040 201.5,-1015 101.5,-1015"/>
<text text-anchor="start" x="108.5" y="-1025" font-family="DejaVu Sans" font-size="10.00" fill="#66758a">uuid ?</text>
<polygon fill="none" stroke="#d7dfe9" points="0.5,-990 0.5,-1015 101.5,-1015 101.5,-990 0.5,-990"/>
<text text-anchor="start" x="7.5" y="-1000" font-family="DejaVu Sans" font-size="10.00">FK subject_id</text>
<polygon fill="none" stroke="#d7dfe9" points="101.5,-990 101.5,-1015 201.5,-1015 201.5,-990 101.5,-990"/>
<text text-anchor="start" x="108.5" y="-1000" font-family="DejaVu Sans" font-size="10.00" fill="#66758a">uuid ?</text>
<polygon fill="none" stroke="#d7dfe9" points="0.5,-965 0.5,-990 101.5,-990 101.5,-965 0.5,-965"/>
<text text-anchor="start" x="7.5" y="-975" font-family="DejaVu Sans" font-size="10.00">valid_from</text>
<polygon fill="none" stroke="#d7dfe9" points="101.5,-965 101.5,-990 201.5,-990 201.5,-965 101.5,-965"/>
<text text-anchor="start" x="108.5" y="-975" font-family="DejaVu Sans" font-size="10.00" fill="#66758a">timestamptz *</text>
<polygon fill="none" stroke="#d7dfe9" points="0.5,-940 0.5,-965 101.5,-965 101.5,-940 0.5,-940"/>
<text text-anchor="start" x="7.5" y="-950" font-family="DejaVu Sans" font-size="10.00">valid_until</text>
<polygon fill="none" stroke="#d7dfe9" points="101.5,-940 101.5,-965 201.5,-965 201.5,-940 101.5,-940"/>
<text text-anchor="start" x="108.5" y="-950" font-family="DejaVu Sans" font-size="10.00" fill="#66758a">timestamptz ?</text>
<polygon fill="none" stroke="#d7dfe9" points="0.5,-915 0.5,-940 101.5,-940 101.5,-915 0.5,-915"/>
<text text-anchor="start" x="7.5" y="-925" font-family="DejaVu Sans" font-size="10.00">revoked_at</text>
<polygon fill="none" stroke="#d7dfe9" points="101.5,-915 101.5,-940 201.5,-940 201.5,-915 101.5,-915"/>
<text text-anchor="start" x="108.5" y="-925" font-family="DejaVu Sans" font-size="10.00" fill="#66758a">timestamptz ?</text>
<polygon fill="none" stroke="#d7dfe9" points="0.5,-890 0.5,-915 101.5,-915 101.5,-890 0.5,-890"/>
<text text-anchor="start" x="7.5" y="-900" font-family="DejaVu Sans" font-size="10.00">FK granted_by</text>
<polygon fill="none" stroke="#d7dfe9" points="101.5,-890 101.5,-915 201.5,-915 201.5,-890 101.5,-890"/>
<text text-anchor="start" x="108.5" y="-900" font-family="DejaVu Sans" font-size="10.00" fill="#66758a">uuid *</text>
<polygon fill="none" stroke="#d7dfe9" points="0.5,-865 0.5,-890 101.5,-890 101.5,-865 0.5,-865"/>
<text text-anchor="start" x="7.5" y="-875" font-family="DejaVu Sans" font-size="10.00">version</text>
<polygon fill="none" stroke="#d7dfe9" points="101.5,-865 101.5,-890 201.5,-890 201.5,-865 101.5,-865"/>
<text text-anchor="start" x="108.5" y="-875" font-family="DejaVu Sans" font-size="10.00" fill="#66758a">integer *</text>
</g>
<!-- app.role_grants&#45;&gt;identity.users -->
<g id="edge16" class="edge">
<title>app.role_grants:e&#45;&gt;identity.users:w</title>
<g id="a_edge16"><a xlink:title="granted_by → id">
<path fill="none" stroke="#8191a8" d="M102.5,-902C102.5,-902 304,0 304,0 304,0 504,0 504,0 504,0 631.09,-528.66 646.48,-592.68"/>
<polygon fill="#8191a8" stroke="#8191a8" points="644.27,-593.21 648,-599 648.69,-592.15 644.27,-593.21"/>
</a>
</g>
<text text-anchor="middle" x="404" y="-2.6" font-family="DejaVu Sans" font-size="8.00">N → 1</text>
</g>
<!-- app.role_grants&#45;&gt;platform.schools -->
<g id="edge11" class="edge">
<title>app.role_grants:e&#45;&gt;platform.schools:w</title>
<g id="a_edge11"><a xlink:title="school_id → id">
<path fill="none" stroke="#8191a8" d="M102.5,-1103C102.5,-1103 304,-1860 304,-1860 304,-1860 504,-1860 504,-1860 504,-1860 589.32,-1634.68 604.66,-1594.19"/>
<polygon fill="#8191a8" stroke="#8191a8" points="606.83,-1594.88 607,-1588 602.57,-1593.27 606.83,-1594.88"/>
</a>
</g>
<text text-anchor="middle" x="404" y="-1862.6" font-family="DejaVu Sans" font-size="8.00">N → 1</text>
</g>
<!-- app.role_grants&#45;&gt;app.memberships -->
<g id="edge12" class="edge">
<title>app.role_grants:e&#45;&gt;app.memberships:w</title>
<g id="a_edge12"><a xlink:title="school_id, member_id → school_id, id">
<path fill="none" stroke="#8191a8" d="M102.5,-1078C102.5,-1078 289.99,-1313.1 320.75,-1351.68"/>
<polygon fill="#8191a8" stroke="#8191a8" points="319.17,-1353.34 325,-1357 322.73,-1350.5 319.17,-1353.34"/>
</a>
</g>
<text text-anchor="middle" x="252.5" y="-1276.6" font-family="DejaVu Sans" font-size="8.00">N → 1</text>
</g>
<!-- app.role_grants&#45;&gt;app.roles -->
<g id="edge13" class="edge">
<title>app.role_grants:e&#45;&gt;app.roles:w</title>
<g id="a_edge13"><a xlink:title="school_id, role_id → school_id, id">
<path fill="none" stroke="#8191a8" d="M102.5,-1053C102.5,-1053 264,-1240 264,-1240 264,-1240 304,-1649 304,-1649 304,-1649 327.85,-1745.88 334.37,-1772.37"/>
<polygon fill="#8191a8" stroke="#8191a8" points="332.24,-1773.23 336,-1779 336.66,-1772.14 332.24,-1773.23"/>
</a>
</g>
<text text-anchor="middle" x="252.5" y="-1242.6" font-family="DejaVu Sans" font-size="8.00">N → 1</text>
</g>
<!-- app.subjects -->
<g id="node13" class="node">
<title>app.subjects</title>
<polygon fill="#98a4b3" stroke="transparent" points="342,-624 342,-649 466,-649 466,-624 342,-624"/>
<polygon fill="none" stroke="#d7dfe9" points="342,-624 342,-649 466,-649 466,-624 342,-624"/>
<text text-anchor="start" x="349" y="-635" font-family="DejaVu Sans" font-weight="bold" font-size="10.00" fill="white">app.subjects</text>
<polygon fill="none" stroke="#d7dfe9" points="342,-599 342,-624 466,-624 466,-599 342,-599"/>
<text text-anchor="start" x="349" y="-609" font-family="DejaVu Sans" font-size="10.00">Môn học [ngoài nhóm]</text>
<polygon fill="none" stroke="#d7dfe9" points="342,-574 342,-599 420,-599 420,-574 342,-574"/>
<text text-anchor="start" x="349" y="-584" font-family="DejaVu Sans" font-size="10.00">PK id</text>
<polygon fill="none" stroke="#d7dfe9" points="420,-574 420,-599 466,-599 466,-574 420,-574"/>
<text text-anchor="start" x="427" y="-584" font-family="DejaVu Sans" font-size="10.00" fill="#66758a">uuid *</text>
<polygon fill="none" stroke="#d7dfe9" points="342,-549 342,-574 420,-574 420,-549 342,-549"/>
<text text-anchor="start" x="349" y="-559" font-family="DejaVu Sans" font-size="10.00">FK school_id</text>
<polygon fill="none" stroke="#d7dfe9" points="420,-549 420,-574 466,-574 466,-549 420,-549"/>
<text text-anchor="start" x="427" y="-559" font-family="DejaVu Sans" font-size="10.00" fill="#66758a">uuid *</text>
</g>
<!-- app.role_grants&#45;&gt;app.subjects -->
<g id="edge15" class="edge">
<title>app.role_grants:e&#45;&gt;app.subjects:w</title>
<g id="a_edge15"><a xlink:title="school_id, subject_id → school_id, id">
<path fill="none" stroke="#8191a8" d="M102.5,-1002C102.5,-1002 308.64,-642.44 337.63,-591.88"/>
<polygon fill="#8191a8" stroke="#8191a8" points="339.74,-592.77 341,-586 335.79,-590.51 339.74,-592.77"/>
</a>
</g>
<text text-anchor="middle" x="252.5" y="-758.6" font-family="DejaVu Sans" font-size="8.00">N → 1</text>
</g>
<!-- app.classes -->
<g id="node14" class="node">
<title>app.classes</title>
<polygon fill="#98a4b3" stroke="transparent" points="310,-972 310,-997 498,-997 498,-972 310,-972"/>
<polygon fill="none" stroke="#d7dfe9" points="310,-972 310,-997 498,-997 498,-972 310,-972"/>
<text text-anchor="start" x="317" y="-983" font-family="DejaVu Sans" font-weight="bold" font-size="10.00" fill="white">app.classes</text>
<polygon fill="none" stroke="#d7dfe9" points="310,-947 310,-972 498,-972 498,-947 310,-947"/>
<text text-anchor="start" x="317" y="-957" font-family="DejaVu Sans" font-size="10.00">Lớp của một năm học [ngoài nhóm]</text>
<polygon fill="none" stroke="#d7dfe9" points="310,-922 310,-947 420,-947 420,-922 310,-922"/>
<text text-anchor="start" x="317" y="-932" font-family="DejaVu Sans" font-size="10.00">PK id</text>
<polygon fill="none" stroke="#d7dfe9" points="420,-922 420,-947 498,-947 498,-922 420,-922"/>
<text text-anchor="start" x="427" y="-932" font-family="DejaVu Sans" font-size="10.00" fill="#66758a">uuid *</text>
<polygon fill="none" stroke="#d7dfe9" points="310,-897 310,-922 420,-922 420,-897 310,-897"/>
<text text-anchor="start" x="317" y="-907" font-family="DejaVu Sans" font-size="10.00">FK school_id</text>
<polygon fill="none" stroke="#d7dfe9" points="420,-897 420,-922 498,-922 498,-897 420,-897"/>
<text text-anchor="start" x="427" y="-907" font-family="DejaVu Sans" font-size="10.00" fill="#66758a">uuid *</text>
</g>
<!-- app.role_grants&#45;&gt;app.classes -->
<g id="edge14" class="edge">
<title>app.role_grants:e&#45;&gt;app.classes:w</title>
<g id="a_edge14"><a xlink:title="school_id, class_id → school_id, id">
<path fill="none" stroke="#8191a8" d="M102.5,-1027C102.5,-1027 269.18,-951.93 303.04,-936.68"/>
<polygon fill="#8191a8" stroke="#8191a8" points="304.01,-938.74 309,-934 302.14,-934.59 304.01,-938.74"/>
</a>
</g>
<text text-anchor="middle" x="252.5" y="-966.6" font-family="DejaVu Sans" font-size="8.00">N → 1</text>
</g>
<!-- app.staff_invitations -->
<g id="node12" class="node">
<title>app.staff_invitations</title>
<polygon fill="#315fe8" stroke="transparent" points="304,-252 304,-277 504,-277 504,-252 304,-252"/>
<polygon fill="none" stroke="#d7dfe9" points="304,-252 304,-277 504,-277 504,-252 304,-252"/>
<text text-anchor="start" x="311" y="-263" font-family="DejaVu Sans" font-weight="bold" font-size="10.00" fill="white">app.staff_invitations</text>
<polygon fill="none" stroke="#d7dfe9" points="304,-227 304,-252 504,-252 504,-227 304,-227"/>
<text text-anchor="start" x="311" y="-237" font-family="DejaVu Sans" font-size="10.00">Lời mời nhân sự không đăng ký tự do</text>
<polygon fill="none" stroke="#d7dfe9" points="304,-202 304,-227 419,-227 419,-202 304,-202"/>
<text text-anchor="start" x="311" y="-212" font-family="DejaVu Sans" font-size="10.00">PK id</text>
<polygon fill="none" stroke="#d7dfe9" points="419,-202 419,-227 504,-227 504,-202 419,-202"/>
<text text-anchor="start" x="426" y="-212" font-family="DejaVu Sans" font-size="10.00" fill="#66758a">uuid *</text>
<polygon fill="none" stroke="#d7dfe9" points="304,-177 304,-202 419,-202 419,-177 304,-177"/>
<text text-anchor="start" x="311" y="-187" font-family="DejaVu Sans" font-size="10.00">FK school_id</text>
<polygon fill="none" stroke="#d7dfe9" points="419,-177 419,-202 504,-202 504,-177 419,-177"/>
<text text-anchor="start" x="426" y="-187" font-family="DejaVu Sans" font-size="10.00" fill="#66758a">uuid *</text>
<polygon fill="none" stroke="#d7dfe9" points="304,-152 304,-177 419,-177 419,-152 304,-152"/>
<text text-anchor="start" x="311" y="-162" font-family="DejaVu Sans" font-size="10.00">token_hash</text>
<polygon fill="none" stroke="#d7dfe9" points="419,-152 419,-177 504,-177 504,-152 419,-152"/>
<text text-anchor="start" x="426" y="-162" font-family="DejaVu Sans" font-size="10.00" fill="#66758a">text *</text>
<polygon fill="none" stroke="#d7dfe9" points="304,-127 304,-152 419,-152 419,-127 304,-127"/>
<text text-anchor="start" x="311" y="-137" font-family="DejaVu Sans" font-size="10.00">status</text>
<polygon fill="none" stroke="#d7dfe9" points="419,-127 419,-152 504,-152 504,-127 419,-127"/>
<text text-anchor="start" x="426" y="-137" font-family="DejaVu Sans" font-size="10.00" fill="#66758a">text *</text>
<polygon fill="none" stroke="#d7dfe9" points="304,-102 304,-127 419,-127 419,-102 304,-102"/>
<text text-anchor="start" x="311" y="-112" font-family="DejaVu Sans" font-size="10.00">expires_at</text>
<polygon fill="none" stroke="#d7dfe9" points="419,-102 419,-127 504,-127 504,-102 419,-102"/>
<text text-anchor="start" x="426" y="-112" font-family="DejaVu Sans" font-size="10.00" fill="#66758a">timestamptz *</text>
<polygon fill="none" stroke="#d7dfe9" points="304,-77 304,-102 419,-102 419,-77 304,-77"/>
<text text-anchor="start" x="311" y="-87" font-family="DejaVu Sans" font-size="10.00">FK invited_by</text>
<polygon fill="none" stroke="#d7dfe9" points="419,-77 419,-102 504,-102 504,-77 419,-77"/>
<text text-anchor="start" x="426" y="-87" font-family="DejaVu Sans" font-size="10.00" fill="#66758a">uuid *</text>
<polygon fill="none" stroke="#d7dfe9" points="304,-52 304,-77 419,-77 419,-52 304,-52"/>
<text text-anchor="start" x="311" y="-62" font-family="DejaVu Sans" font-size="10.00">FK accepted_user_id</text>
<polygon fill="none" stroke="#d7dfe9" points="419,-52 419,-77 504,-77 504,-52 419,-52"/>
<text text-anchor="start" x="426" y="-62" font-family="DejaVu Sans" font-size="10.00" fill="#66758a">uuid ?</text>
<polygon fill="none" stroke="#d7dfe9" points="304,-27 304,-52 419,-52 419,-27 304,-27"/>
<text text-anchor="start" x="311" y="-37" font-family="DejaVu Sans" font-size="10.00">version</text>
<polygon fill="none" stroke="#d7dfe9" points="419,-27 419,-52 504,-52 504,-27 419,-27"/>
<text text-anchor="start" x="426" y="-37" font-family="DejaVu Sans" font-size="10.00" fill="#66758a">integer *</text>
</g>
<!-- app.staff_invitations&#45;&gt;identity.users -->
<g id="edge18" class="edge">
<title>app.staff_invitations:e&#45;&gt;identity.users:w</title>
<g id="a_edge18"><a xlink:title="invited_by → id">
<path fill="none" stroke="#8191a8" d="M420,-89C420,-89 619.56,-535.38 645.28,-592.92"/>
<polygon fill="#8191a8" stroke="#8191a8" points="643.27,-593.99 648,-599 647.42,-592.14 643.27,-593.99"/>
</a>
</g>
<text text-anchor="middle" x="555.5" y="-406.6" font-family="DejaVu Sans" font-size="8.00">N → 1</text>
</g>
<!-- app.staff_invitations&#45;&gt;identity.users -->
<g id="edge19" class="edge">
<title>app.staff_invitations:e&#45;&gt;identity.users:w</title>
<g id="a_edge19"><a xlink:title="accepted_user_id → id">
<path fill="none" stroke="#8191a8" d="M420,-64C420,-64 567,-356 567,-356 567,-356 633.24,-554.71 645.92,-592.75"/>
<polygon fill="#8191a8" stroke="#8191a8" points="643.79,-593.55 648,-599 648.1,-592.11 643.79,-593.55"/>
</a>
</g>
<text text-anchor="middle" x="555.5" y="-358.6" font-family="DejaVu Sans" font-size="8.00">N → 1</text>
</g>
<!-- app.staff_invitations&#45;&gt;platform.schools -->
<g id="edge17" class="edge">
<title>app.staff_invitations:e&#45;&gt;platform.schools:w</title>
<g id="a_edge17"><a xlink:title="school_id → id">
<path fill="none" stroke="#8191a8" d="M420,-190C420,-190 504,-295 504,-295 504,-295 544,-1059 544,-1059 544,-1059 598.91,-1520.07 606.2,-1581.31"/>
<polygon fill="#8191a8" stroke="#8191a8" points="603.97,-1581.81 607,-1588 608.49,-1581.28 603.97,-1581.81"/>
</a>
</g>
<text text-anchor="middle" x="555.5" y="-1247.6" font-family="DejaVu Sans" font-size="8.00">N → 1</text>
</g>
</g>
</svg>
