<?xml version="1.0" encoding="UTF-8" standalone="no"?>
<!DOCTYPE svg PUBLIC "-//W3C//DTD SVG 1.1//EN"
 "http://www.w3.org/Graphics/SVG/1.1/DTD/svg11.dtd">
<!-- Generated by graphviz version 2.42.4 (0)
 -->
<!-- Title: G Pages: 1 -->
<svg width="1107pt" height="890pt"
 viewBox="0.00 0.00 1106.60 890.10" xmlns="http://www.w3.org/2000/svg" xmlns:xlink="http://www.w3.org/1999/xlink">
<g id="graph0" class="graph" transform="scale(1 1) rotate(0) translate(28.8 861.3)">
<title>G</title>
<polygon fill="#ffffff" stroke="transparent" points="-28.8,28.8 -28.8,-861.3 1077.8,-861.3 1077.8,28.8 -28.8,28.8"/>
<text text-anchor="middle" x="524.5" y="-809.3" font-family="DejaVu Sans" font-size="24.00">Học sinh, người giám hộ và lịch sử</text>
<!-- identity.users -->
<g id="node1" class="node">
<title>identity.users</title>
<polygon fill="#98a4b3" stroke="transparent" points="575,-49.5 575,-74.5 746,-74.5 746,-49.5 575,-49.5"/>
<polygon fill="none" stroke="#d7dfe9" points="575,-49.5 575,-74.5 746,-74.5 746,-49.5 575,-49.5"/>
<text text-anchor="start" x="582" y="-60.5" font-family="DejaVu Sans" font-weight="bold" font-size="10.00" fill="white">identity.users</text>
<polygon fill="none" stroke="#d7dfe9" points="575,-24.5 575,-49.5 746,-49.5 746,-24.5 575,-24.5"/>
<text text-anchor="start" x="582" y="-34.5" font-family="DejaVu Sans" font-size="10.00">Danh tính nhân sự [ngoài nhóm]</text>
<polygon fill="none" stroke="#d7dfe9" points="575,0.5 575,-24.5 658,-24.5 658,0.5 575,0.5"/>
<text text-anchor="start" x="582" y="-9.5" font-family="DejaVu Sans" font-size="10.00">PK id</text>
<polygon fill="none" stroke="#d7dfe9" points="658,0.5 658,-24.5 746,-24.5 746,0.5 658,0.5"/>
<text text-anchor="start" x="665" y="-9.5" font-family="DejaVu Sans" font-size="10.00" fill="#66758a">uuid *</text>
</g>
<!-- platform.schools -->
<g id="node2" class="node">
<title>platform.schools</title>
<polygon fill="#98a4b3" stroke="transparent" points="857,-649.5 857,-674.5 1049,-674.5 1049,-649.5 857,-649.5"/>
<polygon fill="none" stroke="#d7dfe9" points="857,-649.5 857,-674.5 1049,-674.5 1049,-649.5 857,-649.5"/>
<text text-anchor="start" x="864" y="-660.5" font-family="DejaVu Sans" font-weight="bold" font-size="10.00" fill="white">platform.schools</text>
<polygon fill="none" stroke="#d7dfe9" points="857,-624.5 857,-649.5 1049,-649.5 1049,-624.5 857,-624.5"/>
<text text-anchor="start" x="864" y="-634.5" font-family="DejaVu Sans" font-size="10.00">Không gian trường học [ngoài nhóm]</text>
<polygon fill="none" stroke="#d7dfe9" points="857,-599.5 857,-624.5 950,-624.5 950,-599.5 857,-599.5"/>
<text text-anchor="start" x="864" y="-609.5" font-family="DejaVu Sans" font-size="10.00">PK id</text>
<polygon fill="none" stroke="#d7dfe9" points="950,-599.5 950,-624.5 1049,-624.5 1049,-599.5 950,-599.5"/>
<text text-anchor="start" x="957" y="-609.5" font-family="DejaVu Sans" font-size="10.00" fill="#66758a">uuid *</text>
</g>
<!-- app.classes -->
<g id="node3" class="node">
<title>app.classes</title>
<polygon fill="#98a4b3" stroke="transparent" points="566,-204.5 566,-229.5 754,-229.5 754,-204.5 566,-204.5"/>
<polygon fill="none" stroke="#d7dfe9" points="566,-204.5 566,-229.5 754,-229.5 754,-204.5 566,-204.5"/>
<text text-anchor="start" x="573" y="-215.5" font-family="DejaVu Sans" font-weight="bold" font-size="10.00" fill="white">app.classes</text>
<polygon fill="none" stroke="#d7dfe9" points="566,-179.5 566,-204.5 754,-204.5 754,-179.5 566,-179.5"/>
<text text-anchor="start" x="573" y="-189.5" font-family="DejaVu Sans" font-size="10.00">Lớp của một năm học [ngoài nhóm]</text>
<polygon fill="none" stroke="#d7dfe9" points="566,-154.5 566,-179.5 676,-179.5 676,-154.5 566,-154.5"/>
<text text-anchor="start" x="573" y="-164.5" font-family="DejaVu Sans" font-size="10.00">PK id</text>
<polygon fill="none" stroke="#d7dfe9" points="676,-154.5 676,-179.5 754,-179.5 754,-154.5 676,-154.5"/>
<text text-anchor="start" x="683" y="-164.5" font-family="DejaVu Sans" font-size="10.00" fill="#66758a">uuid *</text>
<polygon fill="none" stroke="#d7dfe9" points="566,-129.5 566,-154.5 676,-154.5 676,-129.5 566,-129.5"/>
<text text-anchor="start" x="573" y="-139.5" font-family="DejaVu Sans" font-size="10.00">FK school_id</text>
<polygon fill="none" stroke="#d7dfe9" points="676,-129.5 676,-154.5 754,-154.5 754,-129.5 676,-129.5"/>
<text text-anchor="start" x="683" y="-139.5" font-family="DejaVu Sans" font-size="10.00" fill="#66758a">uuid *</text>
</g>
<!-- app.students -->
<g id="node4" class="node">
<title>app.students</title>
<polygon fill="#5265ad" stroke="transparent" points="594,-488.5 594,-513.5 727,-513.5 727,-488.5 594,-488.5"/>
<polygon fill="none" stroke="#d7dfe9" points="594,-488.5 594,-513.5 727,-513.5 727,-488.5 594,-488.5"/>
<text text-anchor="start" x="601" y="-499.5" font-family="DejaVu Sans" font-weight="bold" font-size="10.00" fill="white">app.students</text>
<polygon fill="none" stroke="#d7dfe9" points="594,-463.5 594,-488.5 727,-488.5 727,-463.5 594,-463.5"/>
<text text-anchor="start" x="601" y="-473.5" font-family="DejaVu Sans" font-size="10.00">Hồ sơ học sinh tối thiểu</text>
<polygon fill="none" stroke="#d7dfe9" points="594,-438.5 594,-463.5 670,-463.5 670,-438.5 594,-438.5"/>
<text text-anchor="start" x="601" y="-448.5" font-family="DejaVu Sans" font-size="10.00">PK id</text>
<polygon fill="none" stroke="#d7dfe9" points="670,-438.5 670,-463.5 727,-463.5 727,-438.5 670,-438.5"/>
<text text-anchor="start" x="677" y="-448.5" font-family="DejaVu Sans" font-size="10.00" fill="#66758a">uuid *</text>
<polygon fill="none" stroke="#d7dfe9" points="594,-413.5 594,-438.5 670,-438.5 670,-413.5 594,-413.5"/>
<text text-anchor="start" x="601" y="-423.5" font-family="DejaVu Sans" font-size="10.00">FK school_id</text>
<polygon fill="none" stroke="#d7dfe9" points="670,-413.5 670,-438.5 727,-438.5 727,-413.5 670,-413.5"/>
<text text-anchor="start" x="677" y="-423.5" font-family="DejaVu Sans" font-size="10.00" fill="#66758a">uuid *</text>
<polygon fill="none" stroke="#d7dfe9" points="594,-388.5 594,-413.5 670,-413.5 670,-388.5 594,-388.5"/>
<text text-anchor="start" x="601" y="-398.5" font-family="DejaVu Sans" font-size="10.00">status</text>
<polygon fill="none" stroke="#d7dfe9" points="670,-388.5 670,-413.5 727,-413.5 727,-388.5 670,-388.5"/>
<text text-anchor="start" x="677" y="-398.5" font-family="DejaVu Sans" font-size="10.00" fill="#66758a">text *</text>
<polygon fill="none" stroke="#d7dfe9" points="594,-363.5 594,-388.5 670,-388.5 670,-363.5 594,-363.5"/>
<text text-anchor="start" x="601" y="-373.5" font-family="DejaVu Sans" font-size="10.00">version</text>
<polygon fill="none" stroke="#d7dfe9" points="670,-363.5 670,-388.5 727,-388.5 727,-363.5 670,-363.5"/>
<text text-anchor="start" x="677" y="-373.5" font-family="DejaVu Sans" font-size="10.00" fill="#66758a">integer *</text>
</g>
<!-- app.students&#45;&gt;platform.schools -->
<g id="edge1" class="edge">
<title>app.students:e&#45;&gt;platform.schools:w</title>
<g id="a_edge1"><a xlink:title="school_id → id">
<path fill="none" stroke="#8191a8" d="M671,-425.5C671,-425.5 823.76,-578.26 852.4,-606.9"/>
<polygon fill="#8191a8" stroke="#8191a8" points="850.8,-608.51 857,-611.5 854.01,-605.3 850.8,-608.51"/>
</a>
</g>
<text text-anchor="middle" x="805.5" y="-574.1" font-family="DejaVu Sans" font-size="8.00">N → 1</text>
</g>
<!-- app.enrollments -->
<g id="node5" class="node">
<title>app.enrollments</title>
<polygon fill="#5265ad" stroke="transparent" points="293.5,-387.5 293.5,-412.5 455.5,-412.5 455.5,-387.5 293.5,-387.5"/>
<polygon fill="none" stroke="#d7dfe9" points="293.5,-387.5 293.5,-412.5 455.5,-412.5 455.5,-387.5 293.5,-387.5"/>
<text text-anchor="start" x="300.5" y="-398.5" font-family="DejaVu Sans" font-weight="bold" font-size="10.00" fill="white">app.enrollments</text>
<polygon fill="none" stroke="#d7dfe9" points="293.5,-362.5 293.5,-387.5 455.5,-387.5 455.5,-362.5 293.5,-362.5"/>
<text text-anchor="start" x="300.5" y="-372.5" font-family="DejaVu Sans" font-size="10.00">Quá trình theo học có thời hạn</text>
<polygon fill="none" stroke="#d7dfe9" points="293.5,-337.5 293.5,-362.5 386.5,-362.5 386.5,-337.5 293.5,-337.5"/>
<text text-anchor="start" x="300.5" y="-347.5" font-family="DejaVu Sans" font-size="10.00">PK id</text>
<polygon fill="none" stroke="#d7dfe9" points="386.5,-337.5 386.5,-362.5 455.5,-362.5 455.5,-337.5 386.5,-337.5"/>
<text text-anchor="start" x="393.5" y="-347.5" font-family="DejaVu Sans" font-size="10.00" fill="#66758a">uuid *</text>
<polygon fill="none" stroke="#d7dfe9" points="293.5,-312.5 293.5,-337.5 386.5,-337.5 386.5,-312.5 293.5,-312.5"/>
<text text-anchor="start" x="300.5" y="-322.5" font-family="DejaVu Sans" font-size="10.00">FK school_id</text>
<polygon fill="none" stroke="#d7dfe9" points="386.5,-312.5 386.5,-337.5 455.5,-337.5 455.5,-312.5 386.5,-312.5"/>
<text text-anchor="start" x="393.5" y="-322.5" font-family="DejaVu Sans" font-size="10.00" fill="#66758a">uuid *</text>
<polygon fill="none" stroke="#d7dfe9" points="293.5,-287.5 293.5,-312.5 386.5,-312.5 386.5,-287.5 293.5,-287.5"/>
<text text-anchor="start" x="300.5" y="-297.5" font-family="DejaVu Sans" font-size="10.00">FK student_id</text>
<polygon fill="none" stroke="#d7dfe9" points="386.5,-287.5 386.5,-312.5 455.5,-312.5 455.5,-287.5 386.5,-287.5"/>
<text text-anchor="start" x="393.5" y="-297.5" font-family="DejaVu Sans" font-size="10.00" fill="#66758a">uuid *</text>
<polygon fill="none" stroke="#d7dfe9" points="293.5,-262.5 293.5,-287.5 386.5,-287.5 386.5,-262.5 293.5,-262.5"/>
<text text-anchor="start" x="300.5" y="-272.5" font-family="DejaVu Sans" font-size="10.00">FK class_id</text>
<polygon fill="none" stroke="#d7dfe9" points="386.5,-262.5 386.5,-287.5 455.5,-287.5 455.5,-262.5 386.5,-262.5"/>
<text text-anchor="start" x="393.5" y="-272.5" font-family="DejaVu Sans" font-size="10.00" fill="#66758a">uuid *</text>
<polygon fill="none" stroke="#d7dfe9" points="293.5,-237.5 293.5,-262.5 386.5,-262.5 386.5,-237.5 293.5,-237.5"/>
<text text-anchor="start" x="300.5" y="-247.5" font-family="DejaVu Sans" font-size="10.00">FK year_id</text>
<polygon fill="none" stroke="#d7dfe9" points="386.5,-237.5 386.5,-262.5 455.5,-262.5 455.5,-237.5 386.5,-237.5"/>
<text text-anchor="start" x="393.5" y="-247.5" font-family="DejaVu Sans" font-size="10.00" fill="#66758a">uuid *</text>
<polygon fill="none" stroke="#d7dfe9" points="293.5,-212.5 293.5,-237.5 386.5,-237.5 386.5,-212.5 293.5,-212.5"/>
<text text-anchor="start" x="300.5" y="-222.5" font-family="DejaVu Sans" font-size="10.00">starts_on</text>
<polygon fill="none" stroke="#d7dfe9" points="386.5,-212.5 386.5,-237.5 455.5,-237.5 455.5,-212.5 386.5,-212.5"/>
<text text-anchor="start" x="393.5" y="-222.5" font-family="DejaVu Sans" font-size="10.00" fill="#66758a">date *</text>
<polygon fill="none" stroke="#d7dfe9" points="293.5,-187.5 293.5,-212.5 386.5,-212.5 386.5,-187.5 293.5,-187.5"/>
<text text-anchor="start" x="300.5" y="-197.5" font-family="DejaVu Sans" font-size="10.00">ends_on</text>
<polygon fill="none" stroke="#d7dfe9" points="386.5,-187.5 386.5,-212.5 455.5,-212.5 455.5,-187.5 386.5,-187.5"/>
<text text-anchor="start" x="393.5" y="-197.5" font-family="DejaVu Sans" font-size="10.00" fill="#66758a">date ?</text>
<polygon fill="none" stroke="#d7dfe9" points="293.5,-162.5 293.5,-187.5 386.5,-187.5 386.5,-162.5 293.5,-162.5"/>
<text text-anchor="start" x="300.5" y="-172.5" font-family="DejaVu Sans" font-size="10.00">status</text>
<polygon fill="none" stroke="#d7dfe9" points="386.5,-162.5 386.5,-187.5 455.5,-187.5 455.5,-162.5 386.5,-162.5"/>
<text text-anchor="start" x="393.5" y="-172.5" font-family="DejaVu Sans" font-size="10.00" fill="#66758a">text *</text>
<polygon fill="none" stroke="#d7dfe9" points="293.5,-137.5 293.5,-162.5 386.5,-162.5 386.5,-137.5 293.5,-137.5"/>
<text text-anchor="start" x="300.5" y="-147.5" font-family="DejaVu Sans" font-size="10.00">version</text>
<polygon fill="none" stroke="#d7dfe9" points="386.5,-137.5 386.5,-162.5 455.5,-162.5 455.5,-137.5 386.5,-137.5"/>
<text text-anchor="start" x="393.5" y="-147.5" font-family="DejaVu Sans" font-size="10.00" fill="#66758a">integer *</text>
</g>
<!-- app.enrollments&#45;&gt;platform.schools -->
<g id="edge2" class="edge">
<title>app.enrollments:e&#45;&gt;platform.schools:w</title>
<g id="a_edge2"><a xlink:title="school_id → id">
<path fill="none" stroke="#8191a8" d="M387.5,-325.5C387.5,-325.5 754,-336.5 754,-336.5 754,-336.5 839.32,-564.31 854.66,-605.24"/>
<polygon fill="#8191a8" stroke="#8191a8" points="852.59,-606.21 857,-611.5 856.85,-604.61 852.59,-606.21"/>
</a>
</g>
<text text-anchor="middle" x="660" y="-339.1" font-family="DejaVu Sans" font-size="8.00">N → 1</text>
</g>
<!-- app.enrollments&#45;&gt;app.classes -->
<g id="edge4" class="edge">
<title>app.enrollments:e&#45;&gt;app.classes:w</title>
<g id="a_edge4"><a xlink:title="school_id, class_id, year_id → school_id, id, year_id">
<path fill="none" stroke="#8191a8" d="M387.5,-274.5C387.5,-274.5 529.09,-188.83 560.06,-170.09"/>
<polygon fill="#8191a8" stroke="#8191a8" points="561.62,-171.81 566,-166.5 559.26,-167.92 561.62,-171.81"/>
</a>
</g>
<text text-anchor="middle" x="514.5" y="-208.1" font-family="DejaVu Sans" font-size="8.00">N → 1</text>
</g>
<!-- app.enrollments&#45;&gt;app.students -->
<g id="edge3" class="edge">
<title>app.enrollments:e&#45;&gt;app.students:w</title>
<g id="a_edge3"><a xlink:title="school_id, student_id → school_id, id">
<path fill="none" stroke="#8191a8" d="M387.5,-300.5C387.5,-300.5 554.82,-423.45 587.5,-447.46"/>
<polygon fill="#8191a8" stroke="#8191a8" points="586.41,-449.48 593,-451.5 589.11,-445.82 586.41,-449.48"/>
</a>
</g>
<text text-anchor="middle" x="514.5" y="-401.1" font-family="DejaVu Sans" font-size="8.00">N → 1</text>
</g>
<!-- app.guardians -->
<g id="node6" class="node">
<title>app.guardians</title>
<polygon fill="#5265ad" stroke="transparent" points="569,-674.5 569,-699.5 752,-699.5 752,-674.5 569,-674.5"/>
<polygon fill="none" stroke="#d7dfe9" points="569,-674.5 569,-699.5 752,-699.5 752,-674.5 569,-674.5"/>
<text text-anchor="start" x="576" y="-685.5" font-family="DejaVu Sans" font-weight="bold" font-size="10.00" fill="white">app.guardians</text>
<polygon fill="none" stroke="#d7dfe9" points="569,-649.5 569,-674.5 752,-674.5 752,-649.5 569,-649.5"/>
<text text-anchor="start" x="576" y="-659.5" font-family="DejaVu Sans" font-size="10.00">Liên hệ người giám hộ, không user</text>
<polygon fill="none" stroke="#d7dfe9" points="569,-624.5 569,-649.5 670,-649.5 670,-624.5 569,-624.5"/>
<text text-anchor="start" x="576" y="-634.5" font-family="DejaVu Sans" font-size="10.00">PK id</text>
<polygon fill="none" stroke="#d7dfe9" points="670,-624.5 670,-649.5 752,-649.5 752,-624.5 670,-624.5"/>
<text text-anchor="start" x="677" y="-634.5" font-family="DejaVu Sans" font-size="10.00" fill="#66758a">uuid *</text>
<polygon fill="none" stroke="#d7dfe9" points="569,-599.5 569,-624.5 670,-624.5 670,-599.5 569,-599.5"/>
<text text-anchor="start" x="576" y="-609.5" font-family="DejaVu Sans" font-size="10.00">FK school_id</text>
<polygon fill="none" stroke="#d7dfe9" points="670,-599.5 670,-624.5 752,-624.5 752,-599.5 670,-599.5"/>
<text text-anchor="start" x="677" y="-609.5" font-family="DejaVu Sans" font-size="10.00" fill="#66758a">uuid *</text>
<polygon fill="none" stroke="#d7dfe9" points="569,-574.5 569,-599.5 670,-599.5 670,-574.5 569,-574.5"/>
<text text-anchor="start" x="576" y="-584.5" font-family="DejaVu Sans" font-size="10.00">status</text>
<polygon fill="none" stroke="#d7dfe9" points="670,-574.5 670,-599.5 752,-599.5 752,-574.5 670,-574.5"/>
<text text-anchor="start" x="677" y="-584.5" font-family="DejaVu Sans" font-size="10.00" fill="#66758a">text *</text>
<polygon fill="none" stroke="#d7dfe9" points="569,-549.5 569,-574.5 670,-574.5 670,-549.5 569,-549.5"/>
<text text-anchor="start" x="576" y="-559.5" font-family="DejaVu Sans" font-size="10.00">version</text>
<polygon fill="none" stroke="#d7dfe9" points="670,-549.5 670,-574.5 752,-574.5 752,-549.5 670,-549.5"/>
<text text-anchor="start" x="677" y="-559.5" font-family="DejaVu Sans" font-size="10.00" fill="#66758a">integer *</text>
</g>
<!-- app.guardians&#45;&gt;platform.schools -->
<g id="edge5" class="edge">
<title>app.guardians:e&#45;&gt;platform.schools:w</title>
<g id="a_edge5"><a xlink:title="school_id → id">
<path fill="none" stroke="#8191a8" d="M671,-611.5C671,-611.5 817.25,-611.5 850.38,-611.5"/>
<polygon fill="#8191a8" stroke="#8191a8" points="850.5,-613.78 857,-611.5 850.5,-609.23 850.5,-613.78"/>
</a>
</g>
<text text-anchor="middle" x="805.5" y="-614.1" font-family="DejaVu Sans" font-size="8.00">N → 1</text>
</g>
<!-- app.guardian_relationships -->
<g id="node7" class="node">
<title>app.guardian_relationships</title>
<polygon fill="#5265ad" stroke="transparent" points="286.5,-755.5 286.5,-780.5 463.5,-780.5 463.5,-755.5 286.5,-755.5"/>
<polygon fill="none" stroke="#d7dfe9" points="286.5,-755.5 286.5,-780.5 463.5,-780.5 463.5,-755.5 286.5,-755.5"/>
<text text-anchor="start" x="293.5" y="-766.5" font-family="DejaVu Sans" font-weight="bold" font-size="10.00" fill="white">app.guardian_relationships</text>
<polygon fill="none" stroke="#d7dfe9" points="286.5,-730.5 286.5,-755.5 463.5,-755.5 463.5,-730.5 286.5,-730.5"/>
<text text-anchor="start" x="293.5" y="-740.5" font-family="DejaVu Sans" font-size="10.00">Quan hệ và quyền nhận thông tin</text>
<polygon fill="none" stroke="#d7dfe9" points="286.5,-705.5 286.5,-730.5 375.5,-730.5 375.5,-705.5 286.5,-705.5"/>
<text text-anchor="start" x="293.5" y="-715.5" font-family="DejaVu Sans" font-size="10.00">PK id</text>
<polygon fill="none" stroke="#d7dfe9" points="375.5,-705.5 375.5,-730.5 463.5,-730.5 463.5,-705.5 375.5,-705.5"/>
<text text-anchor="start" x="382.5" y="-715.5" font-family="DejaVu Sans" font-size="10.00" fill="#66758a">uuid *</text>
<polygon fill="none" stroke="#d7dfe9" points="286.5,-680.5 286.5,-705.5 375.5,-705.5 375.5,-680.5 286.5,-680.5"/>
<text text-anchor="start" x="293.5" y="-690.5" font-family="DejaVu Sans" font-size="10.00">FK school_id</text>
<polygon fill="none" stroke="#d7dfe9" points="375.5,-680.5 375.5,-705.5 463.5,-705.5 463.5,-680.5 375.5,-680.5"/>
<text text-anchor="start" x="382.5" y="-690.5" font-family="DejaVu Sans" font-size="10.00" fill="#66758a">uuid *</text>
<polygon fill="none" stroke="#d7dfe9" points="286.5,-655.5 286.5,-680.5 375.5,-680.5 375.5,-655.5 286.5,-655.5"/>
<text text-anchor="start" x="293.5" y="-665.5" font-family="DejaVu Sans" font-size="10.00">FK student_id</text>
<polygon fill="none" stroke="#d7dfe9" points="375.5,-655.5 375.5,-680.5 463.5,-680.5 463.5,-655.5 375.5,-655.5"/>
<text text-anchor="start" x="382.5" y="-665.5" font-family="DejaVu Sans" font-size="10.00" fill="#66758a">uuid *</text>
<polygon fill="none" stroke="#d7dfe9" points="286.5,-630.5 286.5,-655.5 375.5,-655.5 375.5,-630.5 286.5,-630.5"/>
<text text-anchor="start" x="293.5" y="-640.5" font-family="DejaVu Sans" font-size="10.00">FK guardian_id</text>
<polygon fill="none" stroke="#d7dfe9" points="375.5,-630.5 375.5,-655.5 463.5,-655.5 463.5,-630.5 375.5,-630.5"/>
<text text-anchor="start" x="382.5" y="-640.5" font-family="DejaVu Sans" font-size="10.00" fill="#66758a">uuid *</text>
<polygon fill="none" stroke="#d7dfe9" points="286.5,-605.5 286.5,-630.5 375.5,-630.5 375.5,-605.5 286.5,-605.5"/>
<text text-anchor="start" x="293.5" y="-615.5" font-family="DejaVu Sans" font-size="10.00">status</text>
<polygon fill="none" stroke="#d7dfe9" points="375.5,-605.5 375.5,-630.5 463.5,-630.5 463.5,-605.5 375.5,-605.5"/>
<text text-anchor="start" x="382.5" y="-615.5" font-family="DejaVu Sans" font-size="10.00" fill="#66758a">text *</text>
<polygon fill="none" stroke="#d7dfe9" points="286.5,-580.5 286.5,-605.5 375.5,-605.5 375.5,-580.5 286.5,-580.5"/>
<text text-anchor="start" x="293.5" y="-590.5" font-family="DejaVu Sans" font-size="10.00">FK verified_by</text>
<polygon fill="none" stroke="#d7dfe9" points="375.5,-580.5 375.5,-605.5 463.5,-605.5 463.5,-580.5 375.5,-580.5"/>
<text text-anchor="start" x="382.5" y="-590.5" font-family="DejaVu Sans" font-size="10.00" fill="#66758a">uuid ?</text>
<polygon fill="none" stroke="#d7dfe9" points="286.5,-555.5 286.5,-580.5 375.5,-580.5 375.5,-555.5 286.5,-555.5"/>
<text text-anchor="start" x="293.5" y="-565.5" font-family="DejaVu Sans" font-size="10.00">revoked_at</text>
<polygon fill="none" stroke="#d7dfe9" points="375.5,-555.5 375.5,-580.5 463.5,-580.5 463.5,-555.5 375.5,-555.5"/>
<text text-anchor="start" x="382.5" y="-565.5" font-family="DejaVu Sans" font-size="10.00" fill="#66758a">timestamptz ?</text>
<polygon fill="none" stroke="#d7dfe9" points="286.5,-530.5 286.5,-555.5 375.5,-555.5 375.5,-530.5 286.5,-530.5"/>
<text text-anchor="start" x="293.5" y="-540.5" font-family="DejaVu Sans" font-size="10.00">version</text>
<polygon fill="none" stroke="#d7dfe9" points="375.5,-530.5 375.5,-555.5 463.5,-555.5 463.5,-530.5 375.5,-530.5"/>
<text text-anchor="start" x="382.5" y="-540.5" font-family="DejaVu Sans" font-size="10.00" fill="#66758a">integer *</text>
</g>
<!-- app.guardian_relationships&#45;&gt;identity.users -->
<g id="edge9" class="edge">
<title>app.guardian_relationships:e&#45;&gt;identity.users:w</title>
<g id="a_edge9"><a xlink:title="verified_by → id">
<path fill="none" stroke="#8191a8" d="M376.5,-592.5C376.5,-592.5 463,-503.5 463,-503.5 463,-503.5 526,-416.5 526,-416.5 526,-416.5 566.97,-70.85 573.21,-18.19"/>
<polygon fill="#8191a8" stroke="#8191a8" points="575.49,-18.22 574,-11.5 570.98,-17.69 575.49,-18.22"/>
</a>
</g>
<text text-anchor="middle" x="514.5" y="-450.1" font-family="DejaVu Sans" font-size="8.00">N → 1</text>
</g>
<!-- app.guardian_relationships&#45;&gt;platform.schools -->
<g id="edge6" class="edge">
<title>app.guardian_relationships:e&#45;&gt;platform.schools:w</title>
<g id="a_edge6"><a xlink:title="school_id → id">
<path fill="none" stroke="#8191a8" d="M376.5,-693.5C376.5,-693.5 566,-717.5 566,-717.5 566,-717.5 754,-717.5 754,-717.5 754,-717.5 832.16,-637.07 852.31,-616.33"/>
<polygon fill="#8191a8" stroke="#8191a8" points="854.1,-617.75 857,-611.5 850.84,-614.58 854.1,-617.75"/>
</a>
</g>
<text text-anchor="middle" x="660" y="-720.1" font-family="DejaVu Sans" font-size="8.00">N → 1</text>
</g>
<!-- app.guardian_relationships&#45;&gt;app.students -->
<g id="edge7" class="edge">
<title>app.guardian_relationships:e&#45;&gt;app.students:w</title>
<g id="a_edge7"><a xlink:title="school_id, student_id → school_id, id">
<path fill="none" stroke="#8191a8" d="M376.5,-668.5C376.5,-668.5 526,-638.5 526,-638.5 526,-638.5 579.15,-490.17 590.77,-457.72"/>
<polygon fill="#8191a8" stroke="#8191a8" points="592.95,-458.39 593,-451.5 588.67,-456.85 592.95,-458.39"/>
</a>
</g>
<text text-anchor="middle" x="514.5" y="-645.1" font-family="DejaVu Sans" font-size="8.00">N → 1</text>
</g>
<!-- app.guardian_relationships&#45;&gt;app.guardians -->
<g id="edge8" class="edge">
<title>app.guardian_relationships:e&#45;&gt;app.guardians:w</title>
<g id="a_edge8"><a xlink:title="school_id, guardian_id → school_id, id">
<path fill="none" stroke="#8191a8" d="M376.5,-642.5C376.5,-642.5 503,-629.5 503,-629.5 503,-629.5 526,-629.5 526,-629.5 526,-629.5 549.62,-634 561.44,-636.25"/>
<polygon fill="#8191a8" stroke="#8191a8" points="561.19,-638.52 568,-637.5 562.04,-634.05 561.19,-638.52"/>
</a>
</g>
<text text-anchor="middle" x="514.5" y="-632.1" font-family="DejaVu Sans" font-size="8.00">N → 1</text>
</g>
<!-- app.transfer_requests -->
<g id="node8" class="node">
<title>app.transfer_requests</title>
<polygon fill="#5265ad" stroke="transparent" points="0.5,-297.5 0.5,-322.5 183.5,-322.5 183.5,-297.5 0.5,-297.5"/>
<polygon fill="none" stroke="#d7dfe9" points="0.5,-297.5 0.5,-322.5 183.5,-322.5 183.5,-297.5 0.5,-297.5"/>
<text text-anchor="start" x="7.5" y="-308.5" font-family="DejaVu Sans" font-weight="bold" font-size="10.00" fill="white">app.transfer_requests</text>
<polygon fill="none" stroke="#d7dfe9" points="0.5,-272.5 0.5,-297.5 183.5,-297.5 183.5,-272.5 0.5,-272.5"/>
<text text-anchor="start" x="7.5" y="-282.5" font-family="DejaVu Sans" font-size="10.00">Yêu cầu chuyển lớp / ngừng học</text>
<polygon fill="none" stroke="#d7dfe9" points="0.5,-247.5 0.5,-272.5 126.5,-272.5 126.5,-247.5 0.5,-247.5"/>
<text text-anchor="start" x="7.5" y="-257.5" font-family="DejaVu Sans" font-size="10.00">PK id</text>
<polygon fill="none" stroke="#d7dfe9" points="126.5,-247.5 126.5,-272.5 183.5,-272.5 183.5,-247.5 126.5,-247.5"/>
<text text-anchor="start" x="133.5" y="-257.5" font-family="DejaVu Sans" font-size="10.00" fill="#66758a">uuid *</text>
<polygon fill="none" stroke="#d7dfe9" points="0.5,-222.5 0.5,-247.5 126.5,-247.5 126.5,-222.5 0.5,-222.5"/>
<text text-anchor="start" x="7.5" y="-232.5" font-family="DejaVu Sans" font-size="10.00">FK school_id</text>
<polygon fill="none" stroke="#d7dfe9" points="126.5,-222.5 126.5,-247.5 183.5,-247.5 183.5,-222.5 126.5,-222.5"/>
<text text-anchor="start" x="133.5" y="-232.5" font-family="DejaVu Sans" font-size="10.00" fill="#66758a">uuid *</text>
<polygon fill="none" stroke="#d7dfe9" points="0.5,-197.5 0.5,-222.5 126.5,-222.5 126.5,-197.5 0.5,-197.5"/>
<text text-anchor="start" x="7.5" y="-207.5" font-family="DejaVu Sans" font-size="10.00">FK student_id</text>
<polygon fill="none" stroke="#d7dfe9" points="126.5,-197.5 126.5,-222.5 183.5,-222.5 183.5,-197.5 126.5,-197.5"/>
<text text-anchor="start" x="133.5" y="-207.5" font-family="DejaVu Sans" font-size="10.00" fill="#66758a">uuid *</text>
<polygon fill="none" stroke="#d7dfe9" points="0.5,-172.5 0.5,-197.5 126.5,-197.5 126.5,-172.5 0.5,-172.5"/>
<text text-anchor="start" x="7.5" y="-182.5" font-family="DejaVu Sans" font-size="10.00">FK from_enrollment_id</text>
<polygon fill="none" stroke="#d7dfe9" points="126.5,-172.5 126.5,-197.5 183.5,-197.5 183.5,-172.5 126.5,-172.5"/>
<text text-anchor="start" x="133.5" y="-182.5" font-family="DejaVu Sans" font-size="10.00" fill="#66758a">uuid *</text>
<polygon fill="none" stroke="#d7dfe9" points="0.5,-147.5 0.5,-172.5 126.5,-172.5 126.5,-147.5 0.5,-147.5"/>
<text text-anchor="start" x="7.5" y="-157.5" font-family="DejaVu Sans" font-size="10.00">FK to_class_id</text>
<polygon fill="none" stroke="#d7dfe9" points="126.5,-147.5 126.5,-172.5 183.5,-172.5 183.5,-147.5 126.5,-147.5"/>
<text text-anchor="start" x="133.5" y="-157.5" font-family="DejaVu Sans" font-size="10.00" fill="#66758a">uuid ?</text>
<polygon fill="none" stroke="#d7dfe9" points="0.5,-122.5 0.5,-147.5 126.5,-147.5 126.5,-122.5 0.5,-122.5"/>
<text text-anchor="start" x="7.5" y="-132.5" font-family="DejaVu Sans" font-size="10.00">status</text>
<polygon fill="none" stroke="#d7dfe9" points="126.5,-122.5 126.5,-147.5 183.5,-147.5 183.5,-122.5 126.5,-122.5"/>
<text text-anchor="start" x="133.5" y="-132.5" font-family="DejaVu Sans" font-size="10.00" fill="#66758a">text *</text>
<polygon fill="none" stroke="#d7dfe9" points="0.5,-97.5 0.5,-122.5 126.5,-122.5 126.5,-97.5 0.5,-97.5"/>
<text text-anchor="start" x="7.5" y="-107.5" font-family="DejaVu Sans" font-size="10.00">FK requested_by</text>
<polygon fill="none" stroke="#d7dfe9" points="126.5,-97.5 126.5,-122.5 183.5,-122.5 183.5,-97.5 126.5,-97.5"/>
<text text-anchor="start" x="133.5" y="-107.5" font-family="DejaVu Sans" font-size="10.00" fill="#66758a">uuid *</text>
<polygon fill="none" stroke="#d7dfe9" points="0.5,-72.5 0.5,-97.5 126.5,-97.5 126.5,-72.5 0.5,-72.5"/>
<text text-anchor="start" x="7.5" y="-82.5" font-family="DejaVu Sans" font-size="10.00">FK decided_by</text>
<polygon fill="none" stroke="#d7dfe9" points="126.5,-72.5 126.5,-97.5 183.5,-97.5 183.5,-72.5 126.5,-72.5"/>
<text text-anchor="start" x="133.5" y="-82.5" font-family="DejaVu Sans" font-size="10.00" fill="#66758a">uuid ?</text>
<polygon fill="none" stroke="#d7dfe9" points="0.5,-47.5 0.5,-72.5 126.5,-72.5 126.5,-47.5 0.5,-47.5"/>
<text text-anchor="start" x="7.5" y="-57.5" font-family="DejaVu Sans" font-size="10.00">version</text>
<polygon fill="none" stroke="#d7dfe9" points="126.5,-47.5 126.5,-72.5 183.5,-72.5 183.5,-47.5 126.5,-47.5"/>
<text text-anchor="start" x="133.5" y="-57.5" font-family="DejaVu Sans" font-size="10.00" fill="#66758a">integer *</text>
</g>
<!-- app.transfer_requests&#45;&gt;identity.users -->
<g id="edge14" class="edge">
<title>app.transfer_requests:e&#45;&gt;identity.users:w</title>
<g id="a_edge14"><a xlink:title="requested_by → id">
<path fill="none" stroke="#8191a8" d="M127.5,-109.5C127.5,-109.5 511.8,-25.15 567.34,-12.96"/>
<polygon fill="#8191a8" stroke="#8191a8" points="568.14,-15.12 574,-11.5 567.16,-10.67 568.14,-15.12"/>
</a>
</g>
<text text-anchor="middle" x="374.5" y="-76.1" font-family="DejaVu Sans" font-size="8.00">N → 1</text>
</g>
<!-- app.transfer_requests&#45;&gt;identity.users -->
<g id="edge15" class="edge">
<title>app.transfer_requests:e&#45;&gt;identity.users:w</title>
<g id="a_edge15"><a xlink:title="decided_by → id">
<path fill="none" stroke="#8191a8" d="M127.5,-84.5C127.5,-84.5 286,-19.5 286,-19.5 286,-19.5 524.57,-12.87 567.44,-11.68"/>
<polygon fill="#8191a8" stroke="#8191a8" points="567.57,-13.95 574,-11.5 567.44,-9.41 567.57,-13.95"/>
</a>
</g>
<text text-anchor="middle" x="374.5" y="-22.1" font-family="DejaVu Sans" font-size="8.00">N → 1</text>
</g>
<!-- app.transfer_requests&#45;&gt;platform.schools -->
<g id="edge10" class="edge">
<title>app.transfer_requests:e&#45;&gt;platform.schools:w</title>
<g id="a_edge10"><a xlink:title="school_id → id">
<path fill="none" stroke="#8191a8" d="M127.5,-235.5C127.5,-235.5 286,-798.5 286,-798.5 286,-798.5 463,-798.5 463,-798.5 463,-798.5 754,-735.5 754,-735.5 754,-735.5 817,-692.5 817,-692.5 817,-692.5 844.69,-636.43 853.99,-617.59"/>
<polygon fill="#8191a8" stroke="#8191a8" points="856.16,-618.34 857,-611.5 852.08,-616.32 856.16,-618.34"/>
</a>
</g>
<text text-anchor="middle" x="514.5" y="-791.1" font-family="DejaVu Sans" font-size="8.00">N → 1</text>
</g>
<!-- app.transfer_requests&#45;&gt;app.classes -->
<g id="edge13" class="edge">
<title>app.transfer_requests:e&#45;&gt;app.classes:w</title>
<g id="a_edge13"><a xlink:title="school_id, to_class_id → school_id, id">
<path fill="none" stroke="#8191a8" d="M127.5,-159.5C127.5,-159.5 286,-110.5 286,-110.5 286,-110.5 463,-110.5 463,-110.5 463,-110.5 538.38,-151.48 560.17,-163.33"/>
<polygon fill="#8191a8" stroke="#8191a8" points="559.2,-165.39 566,-166.5 561.38,-161.4 559.2,-165.39"/>
</a>
</g>
<text text-anchor="middle" x="374.5" y="-113.1" font-family="DejaVu Sans" font-size="8.00">N → 1</text>
</g>
<!-- app.transfer_requests&#45;&gt;app.students -->
<g id="edge11" class="edge">
<title>app.transfer_requests:e&#45;&gt;app.students:w</title>
<g id="a_edge11"><a xlink:title="school_id, student_id → school_id, id">
<path fill="none" stroke="#8191a8" d="M127.5,-210.5C127.5,-210.5 286,-430.5 286,-430.5 286,-430.5 541.41,-447.97 586.3,-451.04"/>
<polygon fill="#8191a8" stroke="#8191a8" points="586.36,-453.33 593,-451.5 586.67,-448.79 586.36,-453.33"/>
</a>
</g>
<text text-anchor="middle" x="374.5" y="-445.1" font-family="DejaVu Sans" font-size="8.00">N → 1</text>
</g>
<!-- app.transfer_requests&#45;&gt;app.enrollments -->
<g id="edge12" class="edge">
<title>app.transfer_requests:e&#45;&gt;app.enrollments:w</title>
<g id="a_edge12"><a xlink:title="school_id, from_enrollment_id → school_id, id">
<path fill="none" stroke="#8191a8" d="M127.5,-184.5C127.5,-184.5 260.69,-318.49 287.74,-345.71"/>
<polygon fill="#8191a8" stroke="#8191a8" points="286.3,-347.49 292.5,-350.5 289.53,-344.29 286.3,-347.49"/>
</a>
</g>
<text text-anchor="middle" x="234.5" y="-304.1" font-family="DejaVu Sans" font-size="8.00">N → 1</text>
</g>
</g>
</svg>
