<?xml version="1.0" encoding="UTF-8" standalone="no"?>
<!DOCTYPE svg PUBLIC "-//W3C//DTD SVG 1.1//EN"
 "http://www.w3.org/Graphics/SVG/1.1/DTD/svg11.dtd">
<!-- Generated by graphviz version 2.42.4 (0)
 -->
<!-- Title: G Pages: 1 -->
<svg width="864pt" height="1413pt"
 viewBox="0.00 0.00 863.60 1412.60" xmlns="http://www.w3.org/2000/svg" xmlns:xlink="http://www.w3.org/1999/xlink">
<g id="graph0" class="graph" transform="scale(1 1) rotate(0) translate(28.8 1383.8)">
<title>G</title>
<polygon fill="#ffffff" stroke="transparent" points="-28.8,28.8 -28.8,-1383.8 834.8,-1383.8 834.8,28.8 -28.8,28.8"/>
<text text-anchor="middle" x="403" y="-1331.8" font-family="DejaVu Sans" font-size="24.00">Thời khóa biểu và trực nhật</text>
<!-- identity.users -->
<g id="node1" class="node">
<title>identity.users</title>
<polygon fill="#98a4b3" stroke="transparent" points="625,-299 625,-324 796,-324 796,-299 625,-299"/>
<polygon fill="none" stroke="#d7dfe9" points="625,-299 625,-324 796,-324 796,-299 625,-299"/>
<text text-anchor="start" x="632" y="-310" font-family="DejaVu Sans" font-weight="bold" font-size="10.00" fill="white">identity.users</text>
<polygon fill="none" stroke="#d7dfe9" points="625,-274 625,-299 796,-299 796,-274 625,-274"/>
<text text-anchor="start" x="632" y="-284" font-family="DejaVu Sans" font-size="10.00">Danh tính nhân sự [ngoài nhóm]</text>
<polygon fill="none" stroke="#d7dfe9" points="625,-249 625,-274 708,-274 708,-249 625,-249"/>
<text text-anchor="start" x="632" y="-259" font-family="DejaVu Sans" font-size="10.00">PK id</text>
<polygon fill="none" stroke="#d7dfe9" points="708,-249 708,-274 796,-274 796,-249 708,-249"/>
<text text-anchor="start" x="715" y="-259" font-family="DejaVu Sans" font-size="10.00" fill="#66758a">uuid *</text>
</g>
<!-- platform.schools -->
<g id="node2" class="node">
<title>platform.schools</title>
<polygon fill="#98a4b3" stroke="transparent" points="614,-739 614,-764 806,-764 806,-739 614,-739"/>
<polygon fill="none" stroke="#d7dfe9" points="614,-739 614,-764 806,-764 806,-739 614,-739"/>
<text text-anchor="start" x="621" y="-750" font-family="DejaVu Sans" font-weight="bold" font-size="10.00" fill="white">platform.schools</text>
<polygon fill="none" stroke="#d7dfe9" points="614,-714 614,-739 806,-739 806,-714 614,-714"/>
<text text-anchor="start" x="621" y="-724" font-family="DejaVu Sans" font-size="10.00">Không gian trường học [ngoài nhóm]</text>
<polygon fill="none" stroke="#d7dfe9" points="614,-689 614,-714 707,-714 707,-689 614,-689"/>
<text text-anchor="start" x="621" y="-699" font-family="DejaVu Sans" font-size="10.00">PK id</text>
<polygon fill="none" stroke="#d7dfe9" points="707,-689 707,-714 806,-714 806,-689 707,-689"/>
<text text-anchor="start" x="714" y="-699" font-family="DejaVu Sans" font-size="10.00" fill="#66758a">uuid *</text>
</g>
<!-- app.memberships -->
<g id="node3" class="node">
<title>app.memberships</title>
<polygon fill="#98a4b3" stroke="transparent" points="284,-821 284,-846 509,-846 509,-821 284,-821"/>
<polygon fill="none" stroke="#d7dfe9" points="284,-821 284,-846 509,-846 509,-821 284,-821"/>
<text text-anchor="start" x="291" y="-832" font-family="DejaVu Sans" font-weight="bold" font-size="10.00" fill="white">app.memberships</text>
<polygon fill="none" stroke="#d7dfe9" points="284,-796 284,-821 509,-821 509,-796 284,-796"/>
<text text-anchor="start" x="291" y="-806" font-family="DejaVu Sans" font-size="10.00">Thành viên và hồ sơ công tác [ngoài nhóm]</text>
<polygon fill="none" stroke="#d7dfe9" points="284,-771 284,-796 412,-796 412,-771 284,-771"/>
<text text-anchor="start" x="291" y="-781" font-family="DejaVu Sans" font-size="10.00">PK id</text>
<polygon fill="none" stroke="#d7dfe9" points="412,-771 412,-796 509,-796 509,-771 412,-771"/>
<text text-anchor="start" x="419" y="-781" font-family="DejaVu Sans" font-size="10.00" fill="#66758a">uuid *</text>
<polygon fill="none" stroke="#d7dfe9" points="284,-746 284,-771 412,-771 412,-746 284,-746"/>
<text text-anchor="start" x="291" y="-756" font-family="DejaVu Sans" font-size="10.00">FK school_id</text>
<polygon fill="none" stroke="#d7dfe9" points="412,-746 412,-771 509,-771 509,-746 412,-746"/>
<text text-anchor="start" x="419" y="-756" font-family="DejaVu Sans" font-size="10.00" fill="#66758a">uuid *</text>
</g>
<!-- app.subjects -->
<g id="node4" class="node">
<title>app.subjects</title>
<polygon fill="#98a4b3" stroke="transparent" points="334,-957 334,-982 458,-982 458,-957 334,-957"/>
<polygon fill="none" stroke="#d7dfe9" points="334,-957 334,-982 458,-982 458,-957 334,-957"/>
<text text-anchor="start" x="341" y="-968" font-family="DejaVu Sans" font-weight="bold" font-size="10.00" fill="white">app.subjects</text>
<polygon fill="none" stroke="#d7dfe9" points="334,-932 334,-957 458,-957 458,-932 334,-932"/>
<text text-anchor="start" x="341" y="-942" font-family="DejaVu Sans" font-size="10.00">Môn học [ngoài nhóm]</text>
<polygon fill="none" stroke="#d7dfe9" points="334,-907 334,-932 412,-932 412,-907 334,-907"/>
<text text-anchor="start" x="341" y="-917" font-family="DejaVu Sans" font-size="10.00">PK id</text>
<polygon fill="none" stroke="#d7dfe9" points="412,-907 412,-932 458,-932 458,-907 412,-907"/>
<text text-anchor="start" x="419" y="-917" font-family="DejaVu Sans" font-size="10.00" fill="#66758a">uuid *</text>
<polygon fill="none" stroke="#d7dfe9" points="334,-882 334,-907 412,-907 412,-882 334,-882"/>
<text text-anchor="start" x="341" y="-892" font-family="DejaVu Sans" font-size="10.00">FK school_id</text>
<polygon fill="none" stroke="#d7dfe9" points="412,-882 412,-907 458,-907 458,-882 412,-882"/>
<text text-anchor="start" x="419" y="-892" font-family="DejaVu Sans" font-size="10.00" fill="#66758a">uuid *</text>
</g>
<!-- app.rooms -->
<g id="node5" class="node">
<title>app.rooms</title>
<polygon fill="#98a4b3" stroke="transparent" points="330,-604 330,-629 463,-629 463,-604 330,-604"/>
<polygon fill="none" stroke="#d7dfe9" points="330,-604 330,-629 463,-629 463,-604 330,-604"/>
<text text-anchor="start" x="337" y="-615" font-family="DejaVu Sans" font-weight="bold" font-size="10.00" fill="white">app.rooms</text>
<polygon fill="none" stroke="#d7dfe9" points="330,-579 330,-604 463,-604 463,-579 330,-579"/>
<text text-anchor="start" x="337" y="-589" font-family="DejaVu Sans" font-size="10.00">Phòng học [ngoài nhóm]</text>
<polygon fill="none" stroke="#d7dfe9" points="330,-554 330,-579 412,-579 412,-554 330,-554"/>
<text text-anchor="start" x="337" y="-564" font-family="DejaVu Sans" font-size="10.00">PK id</text>
<polygon fill="none" stroke="#d7dfe9" points="412,-554 412,-579 463,-579 463,-554 412,-554"/>
<text text-anchor="start" x="419" y="-564" font-family="DejaVu Sans" font-size="10.00" fill="#66758a">uuid *</text>
<polygon fill="none" stroke="#d7dfe9" points="330,-529 330,-554 412,-554 412,-529 330,-529"/>
<text text-anchor="start" x="337" y="-539" font-family="DejaVu Sans" font-size="10.00">FK school_id</text>
<polygon fill="none" stroke="#d7dfe9" points="412,-529 412,-554 463,-554 463,-529 412,-529"/>
<text text-anchor="start" x="419" y="-539" font-family="DejaVu Sans" font-size="10.00" fill="#66758a">uuid *</text>
</g>
<!-- app.classes -->
<g id="node6" class="node">
<title>app.classes</title>
<polygon fill="#98a4b3" stroke="transparent" points="616,-564 616,-589 804,-589 804,-564 616,-564"/>
<polygon fill="none" stroke="#d7dfe9" points="616,-564 616,-589 804,-589 804,-564 616,-564"/>
<text text-anchor="start" x="623" y="-575" font-family="DejaVu Sans" font-weight="bold" font-size="10.00" fill="white">app.classes</text>
<polygon fill="none" stroke="#d7dfe9" points="616,-539 616,-564 804,-564 804,-539 616,-539"/>
<text text-anchor="start" x="623" y="-549" font-family="DejaVu Sans" font-size="10.00">Lớp của một năm học [ngoài nhóm]</text>
<polygon fill="none" stroke="#d7dfe9" points="616,-514 616,-539 726,-539 726,-514 616,-514"/>
<text text-anchor="start" x="623" y="-524" font-family="DejaVu Sans" font-size="10.00">PK id</text>
<polygon fill="none" stroke="#d7dfe9" points="726,-514 726,-539 804,-539 804,-514 726,-514"/>
<text text-anchor="start" x="733" y="-524" font-family="DejaVu Sans" font-size="10.00" fill="#66758a">uuid *</text>
<polygon fill="none" stroke="#d7dfe9" points="616,-489 616,-514 726,-514 726,-489 616,-489"/>
<text text-anchor="start" x="623" y="-499" font-family="DejaVu Sans" font-size="10.00">FK school_id</text>
<polygon fill="none" stroke="#d7dfe9" points="726,-489 726,-514 804,-514 804,-489 726,-489"/>
<text text-anchor="start" x="733" y="-499" font-family="DejaVu Sans" font-size="10.00" fill="#66758a">uuid *</text>
</g>
<!-- app.enrollments -->
<g id="node7" class="node">
<title>app.enrollments</title>
<polygon fill="#98a4b3" stroke="transparent" points="281,-75 281,-100 511,-100 511,-75 281,-75"/>
<polygon fill="none" stroke="#d7dfe9" points="281,-75 281,-100 511,-100 511,-75 281,-75"/>
<text text-anchor="start" x="288" y="-86" font-family="DejaVu Sans" font-weight="bold" font-size="10.00" fill="white">app.enrollments</text>
<polygon fill="none" stroke="#d7dfe9" points="281,-50 281,-75 511,-75 511,-50 281,-50"/>
<text text-anchor="start" x="288" y="-60" font-family="DejaVu Sans" font-size="10.00">Quá trình theo học có thời hạn [ngoài nhóm]</text>
<polygon fill="none" stroke="#d7dfe9" points="281,-25 281,-50 412,-50 412,-25 281,-25"/>
<text text-anchor="start" x="288" y="-35" font-family="DejaVu Sans" font-size="10.00">PK id</text>
<polygon fill="none" stroke="#d7dfe9" points="412,-25 412,-50 511,-50 511,-25 412,-25"/>
<text text-anchor="start" x="419" y="-35" font-family="DejaVu Sans" font-size="10.00" fill="#66758a">uuid *</text>
<polygon fill="none" stroke="#d7dfe9" points="281,0 281,-25 412,-25 412,0 281,0"/>
<text text-anchor="start" x="288" y="-10" font-family="DejaVu Sans" font-size="10.00">FK school_id</text>
<polygon fill="none" stroke="#d7dfe9" points="412,0 412,-25 511,-25 511,0 412,0"/>
<text text-anchor="start" x="419" y="-10" font-family="DejaVu Sans" font-size="10.00" fill="#66758a">uuid *</text>
</g>
<!-- app.timetable_versions -->
<g id="node8" class="node">
<title>app.timetable_versions</title>
<polygon fill="#6e58ad" stroke="transparent" points="315,-1268 315,-1293 478,-1293 478,-1268 315,-1268"/>
<polygon fill="none" stroke="#d7dfe9" points="315,-1268 315,-1293 478,-1293 478,-1268 315,-1268"/>
<text text-anchor="start" x="322" y="-1279" font-family="DejaVu Sans" font-weight="bold" font-size="10.00" fill="white">app.timetable_versions</text>
<polygon fill="none" stroke="#d7dfe9" points="315,-1243 315,-1268 478,-1268 478,-1243 315,-1243"/>
<text text-anchor="start" x="322" y="-1253" font-family="DejaVu Sans" font-size="10.00">Lịch tuần nháp và bản công bố</text>
<polygon fill="none" stroke="#d7dfe9" points="315,-1218 315,-1243 410,-1243 410,-1218 315,-1218"/>
<text text-anchor="start" x="322" y="-1228" font-family="DejaVu Sans" font-size="10.00">PK id</text>
<polygon fill="none" stroke="#d7dfe9" points="410,-1218 410,-1243 478,-1243 478,-1218 410,-1218"/>
<text text-anchor="start" x="417" y="-1228" font-family="DejaVu Sans" font-size="10.00" fill="#66758a">uuid *</text>
<polygon fill="none" stroke="#d7dfe9" points="315,-1193 315,-1218 410,-1218 410,-1193 315,-1193"/>
<text text-anchor="start" x="322" y="-1203" font-family="DejaVu Sans" font-size="10.00">FK school_id</text>
<polygon fill="none" stroke="#d7dfe9" points="410,-1193 410,-1218 478,-1218 478,-1193 410,-1193"/>
<text text-anchor="start" x="417" y="-1203" font-family="DejaVu Sans" font-size="10.00" fill="#66758a">uuid *</text>
<polygon fill="none" stroke="#d7dfe9" points="315,-1168 315,-1193 410,-1193 410,-1168 315,-1168"/>
<text text-anchor="start" x="322" y="-1178" font-family="DejaVu Sans" font-size="10.00">FK class_id</text>
<polygon fill="none" stroke="#d7dfe9" points="410,-1168 410,-1193 478,-1193 478,-1168 410,-1168"/>
<text text-anchor="start" x="417" y="-1178" font-family="DejaVu Sans" font-size="10.00" fill="#66758a">uuid *</text>
<polygon fill="none" stroke="#d7dfe9" points="315,-1143 315,-1168 410,-1168 410,-1143 315,-1143"/>
<text text-anchor="start" x="322" y="-1153" font-family="DejaVu Sans" font-size="10.00">FK year_id</text>
<polygon fill="none" stroke="#d7dfe9" points="410,-1143 410,-1168 478,-1168 478,-1143 410,-1143"/>
<text text-anchor="start" x="417" y="-1153" font-family="DejaVu Sans" font-size="10.00" fill="#66758a">uuid *</text>
<polygon fill="none" stroke="#d7dfe9" points="315,-1118 315,-1143 410,-1143 410,-1118 315,-1118"/>
<text text-anchor="start" x="322" y="-1128" font-family="DejaVu Sans" font-size="10.00">starts_on</text>
<polygon fill="none" stroke="#d7dfe9" points="410,-1118 410,-1143 478,-1143 478,-1118 410,-1118"/>
<text text-anchor="start" x="417" y="-1128" font-family="DejaVu Sans" font-size="10.00" fill="#66758a">date *</text>
<polygon fill="none" stroke="#d7dfe9" points="315,-1093 315,-1118 410,-1118 410,-1093 315,-1093"/>
<text text-anchor="start" x="322" y="-1103" font-family="DejaVu Sans" font-size="10.00">ends_on</text>
<polygon fill="none" stroke="#d7dfe9" points="410,-1093 410,-1118 478,-1118 478,-1093 410,-1093"/>
<text text-anchor="start" x="417" y="-1103" font-family="DejaVu Sans" font-size="10.00" fill="#66758a">date *</text>
<polygon fill="none" stroke="#d7dfe9" points="315,-1068 315,-1093 410,-1093 410,-1068 315,-1068"/>
<text text-anchor="start" x="322" y="-1078" font-family="DejaVu Sans" font-size="10.00">status</text>
<polygon fill="none" stroke="#d7dfe9" points="410,-1068 410,-1093 478,-1093 478,-1068 410,-1068"/>
<text text-anchor="start" x="417" y="-1078" font-family="DejaVu Sans" font-size="10.00" fill="#66758a">text *</text>
<polygon fill="none" stroke="#d7dfe9" points="315,-1043 315,-1068 410,-1068 410,-1043 315,-1043"/>
<text text-anchor="start" x="322" y="-1053" font-family="DejaVu Sans" font-size="10.00">FK created_by</text>
<polygon fill="none" stroke="#d7dfe9" points="410,-1043 410,-1068 478,-1068 478,-1043 410,-1043"/>
<text text-anchor="start" x="417" y="-1053" font-family="DejaVu Sans" font-size="10.00" fill="#66758a">uuid *</text>
<polygon fill="none" stroke="#d7dfe9" points="315,-1018 315,-1043 410,-1043 410,-1018 315,-1018"/>
<text text-anchor="start" x="322" y="-1028" font-family="DejaVu Sans" font-size="10.00">version</text>
<polygon fill="none" stroke="#d7dfe9" points="410,-1018 410,-1043 478,-1043 478,-1018 410,-1018"/>
<text text-anchor="start" x="417" y="-1028" font-family="DejaVu Sans" font-size="10.00" fill="#66758a">integer *</text>
</g>
<!-- app.timetable_versions&#45;&gt;identity.users -->
<g id="edge3" class="edge">
<title>app.timetable_versions:e&#45;&gt;identity.users:w</title>
<g id="a_edge3"><a xlink:title="created_by → id">
<path fill="none" stroke="#8191a8" d="M411,-1055C411,-1055 511,-1000 511,-1000 511,-1000 551,-688 551,-688 551,-688 613.57,-322.03 622.85,-267.71"/>
<polygon fill="#8191a8" stroke="#8191a8" points="625.15,-267.79 624,-261 620.66,-267.02 625.15,-267.79"/>
</a>
</g>
<text text-anchor="middle" x="562.5" y="-690.6" font-family="DejaVu Sans" font-size="8.00">N → 1</text>
</g>
<!-- app.timetable_versions&#45;&gt;platform.schools -->
<g id="edge1" class="edge">
<title>app.timetable_versions:e&#45;&gt;platform.schools:w</title>
<g id="a_edge1"><a xlink:title="school_id → id">
<path fill="none" stroke="#8191a8" d="M411,-1206C411,-1206 511,-1000 511,-1000 511,-1000 597.06,-750.18 611.85,-707.25"/>
<polygon fill="#8191a8" stroke="#8191a8" points="614.03,-707.89 614,-701 609.73,-706.4 614.03,-707.89"/>
</a>
</g>
<text text-anchor="middle" x="562.5" y="-879.6" font-family="DejaVu Sans" font-size="8.00">N → 1</text>
</g>
<!-- app.timetable_versions&#45;&gt;app.classes -->
<g id="edge2" class="edge">
<title>app.timetable_versions:e&#45;&gt;app.classes:w</title>
<g id="a_edge2"><a xlink:title="school_id, class_id, year_id → school_id, id, year_id">
<path fill="none" stroke="#8191a8" d="M411,-1181C411,-1181 511,-1000 511,-1000 511,-1000 551,-805 551,-805 551,-805 604.02,-573.88 613.54,-532.35"/>
<polygon fill="#8191a8" stroke="#8191a8" points="615.76,-532.84 615,-526 611.33,-531.83 615.76,-532.84"/>
</a>
</g>
<text text-anchor="middle" x="562.5" y="-807.6" font-family="DejaVu Sans" font-size="8.00">N → 1</text>
</g>
<!-- app.timetable_entries -->
<g id="node9" class="node">
<title>app.timetable_entries</title>
<polygon fill="#6e58ad" stroke="transparent" points="15,-771 15,-796 164,-796 164,-771 15,-771"/>
<polygon fill="none" stroke="#d7dfe9" points="15,-771 15,-796 164,-796 164,-771 15,-771"/>
<text text-anchor="start" x="22" y="-782" font-family="DejaVu Sans" font-weight="bold" font-size="10.00" fill="white">app.timetable_entries</text>
<polygon fill="none" stroke="#d7dfe9" points="15,-746 15,-771 164,-771 164,-746 15,-746"/>
<text text-anchor="start" x="22" y="-756" font-family="DejaVu Sans" font-size="10.00">Tiết học mẫu trong tuần</text>
<polygon fill="none" stroke="#d7dfe9" points="15,-721 15,-746 107,-746 107,-721 15,-721"/>
<text text-anchor="start" x="22" y="-731" font-family="DejaVu Sans" font-size="10.00">PK id</text>
<polygon fill="none" stroke="#d7dfe9" points="107,-721 107,-746 164,-746 164,-721 107,-721"/>
<text text-anchor="start" x="114" y="-731" font-family="DejaVu Sans" font-size="10.00" fill="#66758a">uuid *</text>
<polygon fill="none" stroke="#d7dfe9" points="15,-696 15,-721 107,-721 107,-696 15,-696"/>
<text text-anchor="start" x="22" y="-706" font-family="DejaVu Sans" font-size="10.00">FK school_id</text>
<polygon fill="none" stroke="#d7dfe9" points="107,-696 107,-721 164,-721 164,-696 107,-696"/>
<text text-anchor="start" x="114" y="-706" font-family="DejaVu Sans" font-size="10.00" fill="#66758a">uuid *</text>
<polygon fill="none" stroke="#d7dfe9" points="15,-671 15,-696 107,-696 107,-671 15,-671"/>
<text text-anchor="start" x="22" y="-681" font-family="DejaVu Sans" font-size="10.00">FK class_id</text>
<polygon fill="none" stroke="#d7dfe9" points="107,-671 107,-696 164,-696 164,-671 107,-671"/>
<text text-anchor="start" x="114" y="-681" font-family="DejaVu Sans" font-size="10.00" fill="#66758a">uuid *</text>
<polygon fill="none" stroke="#d7dfe9" points="15,-646 15,-671 107,-671 107,-646 15,-646"/>
<text text-anchor="start" x="22" y="-656" font-family="DejaVu Sans" font-size="10.00">FK timetable_id</text>
<polygon fill="none" stroke="#d7dfe9" points="107,-646 107,-671 164,-671 164,-646 107,-646"/>
<text text-anchor="start" x="114" y="-656" font-family="DejaVu Sans" font-size="10.00" fill="#66758a">uuid *</text>
<polygon fill="none" stroke="#d7dfe9" points="15,-621 15,-646 107,-646 107,-621 15,-621"/>
<text text-anchor="start" x="22" y="-631" font-family="DejaVu Sans" font-size="10.00">FK subject_id</text>
<polygon fill="none" stroke="#d7dfe9" points="107,-621 107,-646 164,-646 164,-621 107,-621"/>
<text text-anchor="start" x="114" y="-631" font-family="DejaVu Sans" font-size="10.00" fill="#66758a">uuid *</text>
<polygon fill="none" stroke="#d7dfe9" points="15,-596 15,-621 107,-621 107,-596 15,-596"/>
<text text-anchor="start" x="22" y="-606" font-family="DejaVu Sans" font-size="10.00">FK member_id</text>
<polygon fill="none" stroke="#d7dfe9" points="107,-596 107,-621 164,-621 164,-596 107,-596"/>
<text text-anchor="start" x="114" y="-606" font-family="DejaVu Sans" font-size="10.00" fill="#66758a">uuid *</text>
<polygon fill="none" stroke="#d7dfe9" points="15,-571 15,-596 107,-596 107,-571 15,-571"/>
<text text-anchor="start" x="22" y="-581" font-family="DejaVu Sans" font-size="10.00">FK room_id</text>
<polygon fill="none" stroke="#d7dfe9" points="107,-571 107,-596 164,-596 164,-571 107,-571"/>
<text text-anchor="start" x="114" y="-581" font-family="DejaVu Sans" font-size="10.00" fill="#66758a">uuid ?</text>
<polygon fill="none" stroke="#d7dfe9" points="15,-546 15,-571 107,-571 107,-546 15,-546"/>
<text text-anchor="start" x="22" y="-556" font-family="DejaVu Sans" font-size="10.00">version</text>
<polygon fill="none" stroke="#d7dfe9" points="107,-546 107,-571 164,-571 164,-546 107,-546"/>
<text text-anchor="start" x="114" y="-556" font-family="DejaVu Sans" font-size="10.00" fill="#66758a">integer *</text>
</g>
<!-- app.timetable_entries&#45;&gt;platform.schools -->
<g id="edge4" class="edge">
<title>app.timetable_entries:e&#45;&gt;platform.schools:w</title>
<g id="a_edge4"><a xlink:title="school_id → id">
<path fill="none" stroke="#8191a8" d="M108,-709C108,-709 547.18,-702.06 607.23,-701.11"/>
<polygon fill="#8191a8" stroke="#8191a8" points="607.54,-703.38 614,-701 607.46,-698.83 607.54,-703.38"/>
</a>
</g>
<text text-anchor="middle" x="396" y="-708.6" font-family="DejaVu Sans" font-size="8.00">N → 1</text>
</g>
<!-- app.timetable_entries&#45;&gt;app.memberships -->
<g id="edge7" class="edge">
<title>app.timetable_entries:e&#45;&gt;app.memberships:w</title>
<g id="a_edge7"><a xlink:title="school_id, member_id → school_id, id">
<path fill="none" stroke="#8191a8" d="M108,-608C108,-608 241,-618 241,-618 241,-618 273.44,-745.46 281.3,-776.33"/>
<polygon fill="#8191a8" stroke="#8191a8" points="279.19,-777.26 283,-783 283.6,-776.14 279.19,-777.26"/>
</a>
</g>
<text text-anchor="middle" x="229.5" y="-620.6" font-family="DejaVu Sans" font-size="8.00">N → 1</text>
</g>
<!-- app.timetable_entries&#45;&gt;app.subjects -->
<g id="edge6" class="edge">
<title>app.timetable_entries:e&#45;&gt;app.subjects:w</title>
<g id="a_edge6"><a xlink:title="school_id, subject_id → school_id, id">
<path fill="none" stroke="#8191a8" d="M108,-633C108,-633 241,-734 241,-734 241,-734 281,-864 281,-864 281,-864 315.33,-900.31 328.2,-913.92"/>
<polygon fill="#8191a8" stroke="#8191a8" points="326.88,-915.84 333,-919 330.19,-912.71 326.88,-915.84"/>
</a>
</g>
<text text-anchor="middle" x="229.5" y="-736.6" font-family="DejaVu Sans" font-size="8.00">N → 1</text>
</g>
<!-- app.timetable_entries&#45;&gt;app.rooms -->
<g id="edge8" class="edge">
<title>app.timetable_entries:e&#45;&gt;app.rooms:w</title>
<g id="a_edge8"><a xlink:title="school_id, room_id → school_id, id">
<path fill="none" stroke="#8191a8" d="M108,-583C108,-583 218,-567 218,-567 218,-567 298.49,-566.27 322.39,-566.06"/>
<polygon fill="#8191a8" stroke="#8191a8" points="322.52,-568.33 329,-566 322.48,-563.78 322.52,-568.33"/>
</a>
</g>
<text text-anchor="middle" x="229.5" y="-569.6" font-family="DejaVu Sans" font-size="8.00">N → 1</text>
</g>
<!-- app.timetable_entries&#45;&gt;app.timetable_versions -->
<g id="edge5" class="edge">
<title>app.timetable_entries:e&#45;&gt;app.timetable_versions:w</title>
<g id="a_edge5"><a xlink:title="school_id, timetable_id, class_id → school_id, id, class_id">
<path fill="none" stroke="#8191a8" d="M108,-658C108,-658 178,-815 178,-815 178,-815 218,-949 218,-949 218,-949 297.52,-1182.6 311.81,-1224.58"/>
<polygon fill="#8191a8" stroke="#8191a8" points="309.75,-1225.58 314,-1231 314.06,-1224.11 309.75,-1225.58"/>
</a>
</g>
<text text-anchor="middle" x="229.5" y="-1011.6" font-family="DejaVu Sans" font-size="8.00">N → 1</text>
</g>
<!-- app.lesson_occurrences -->
<g id="node10" class="node">
<title>app.lesson_occurrences</title>
<polygon fill="#6e58ad" stroke="transparent" points="0,-1082 0,-1107 178,-1107 178,-1082 0,-1082"/>
<polygon fill="none" stroke="#d7dfe9" points="0,-1082 0,-1107 178,-1107 178,-1082 0,-1082"/>
<text text-anchor="start" x="7" y="-1093" font-family="DejaVu Sans" font-weight="bold" font-size="10.00" fill="white">app.lesson_occurrences</text>
<polygon fill="none" stroke="#d7dfe9" points="0,-1057 0,-1082 178,-1082 178,-1057 0,-1057"/>
<text text-anchor="start" x="7" y="-1067" font-family="DejaVu Sans" font-size="10.00">Tiết học thực tế và kiểm tra trùng</text>
<polygon fill="none" stroke="#d7dfe9" points="0,-1032 0,-1057 106,-1057 106,-1032 0,-1032"/>
<text text-anchor="start" x="7" y="-1042" font-family="DejaVu Sans" font-size="10.00">PK id</text>
<polygon fill="none" stroke="#d7dfe9" points="106,-1032 106,-1057 178,-1057 178,-1032 106,-1032"/>
<text text-anchor="start" x="113" y="-1042" font-family="DejaVu Sans" font-size="10.00" fill="#66758a">uuid *</text>
<polygon fill="none" stroke="#d7dfe9" points="0,-1007 0,-1032 106,-1032 106,-1007 0,-1007"/>
<text text-anchor="start" x="7" y="-1017" font-family="DejaVu Sans" font-size="10.00">FK school_id</text>
<polygon fill="none" stroke="#d7dfe9" points="106,-1007 106,-1032 178,-1032 178,-1007 106,-1007"/>
<text text-anchor="start" x="113" y="-1017" font-family="DejaVu Sans" font-size="10.00" fill="#66758a">uuid *</text>
<polygon fill="none" stroke="#d7dfe9" points="0,-982 0,-1007 106,-1007 106,-982 0,-982"/>
<text text-anchor="start" x="7" y="-992" font-family="DejaVu Sans" font-size="10.00">FK class_id</text>
<polygon fill="none" stroke="#d7dfe9" points="106,-982 106,-1007 178,-1007 178,-982 106,-982"/>
<text text-anchor="start" x="113" y="-992" font-family="DejaVu Sans" font-size="10.00" fill="#66758a">uuid *</text>
<polygon fill="none" stroke="#d7dfe9" points="0,-957 0,-982 106,-982 106,-957 0,-957"/>
<text text-anchor="start" x="7" y="-967" font-family="DejaVu Sans" font-size="10.00">FK timetable_id</text>
<polygon fill="none" stroke="#d7dfe9" points="106,-957 106,-982 178,-982 178,-957 106,-957"/>
<text text-anchor="start" x="113" y="-967" font-family="DejaVu Sans" font-size="10.00" fill="#66758a">uuid *</text>
<polygon fill="none" stroke="#d7dfe9" points="0,-932 0,-957 106,-957 106,-932 0,-932"/>
<text text-anchor="start" x="7" y="-942" font-family="DejaVu Sans" font-size="10.00">FK subject_id</text>
<polygon fill="none" stroke="#d7dfe9" points="106,-932 106,-957 178,-957 178,-932 106,-932"/>
<text text-anchor="start" x="113" y="-942" font-family="DejaVu Sans" font-size="10.00" fill="#66758a">uuid *</text>
<polygon fill="none" stroke="#d7dfe9" points="0,-907 0,-932 106,-932 106,-907 0,-907"/>
<text text-anchor="start" x="7" y="-917" font-family="DejaVu Sans" font-size="10.00">FK member_id</text>
<polygon fill="none" stroke="#d7dfe9" points="106,-907 106,-932 178,-932 178,-907 106,-907"/>
<text text-anchor="start" x="113" y="-917" font-family="DejaVu Sans" font-size="10.00" fill="#66758a">uuid *</text>
<polygon fill="none" stroke="#d7dfe9" points="0,-882 0,-907 106,-907 106,-882 0,-882"/>
<text text-anchor="start" x="7" y="-892" font-family="DejaVu Sans" font-size="10.00">FK room_id</text>
<polygon fill="none" stroke="#d7dfe9" points="106,-882 106,-907 178,-907 178,-882 106,-882"/>
<text text-anchor="start" x="113" y="-892" font-family="DejaVu Sans" font-size="10.00" fill="#66758a">uuid ?</text>
<polygon fill="none" stroke="#d7dfe9" points="0,-857 0,-882 106,-882 106,-857 0,-857"/>
<text text-anchor="start" x="7" y="-867" font-family="DejaVu Sans" font-size="10.00">status</text>
<polygon fill="none" stroke="#d7dfe9" points="106,-857 106,-882 178,-882 178,-857 106,-857"/>
<text text-anchor="start" x="113" y="-867" font-family="DejaVu Sans" font-size="10.00" fill="#66758a">text *</text>
<polygon fill="none" stroke="#d7dfe9" points="0,-832 0,-857 106,-857 106,-832 0,-832"/>
<text text-anchor="start" x="7" y="-842" font-family="DejaVu Sans" font-size="10.00">version</text>
<polygon fill="none" stroke="#d7dfe9" points="106,-832 106,-857 178,-857 178,-832 106,-832"/>
<text text-anchor="start" x="113" y="-842" font-family="DejaVu Sans" font-size="10.00" fill="#66758a">integer *</text>
</g>
<!-- app.lesson_occurrences&#45;&gt;platform.schools -->
<g id="edge9" class="edge">
<title>app.lesson_occurrences:e&#45;&gt;platform.schools:w</title>
<g id="a_edge9"><a xlink:title="school_id → id">
<path fill="none" stroke="#8191a8" d="M107,-1020C107,-1020 281,-1312 281,-1312 281,-1312 511,-1312 511,-1312 511,-1312 601.9,-772.75 612.91,-707.45"/>
<polygon fill="#8191a8" stroke="#8191a8" points="615.16,-707.79 614,-701 610.68,-707.03 615.16,-707.79"/>
</a>
</g>
<text text-anchor="middle" x="396" y="-1314.6" font-family="DejaVu Sans" font-size="8.00">N → 1</text>
</g>
<!-- app.lesson_occurrences&#45;&gt;app.memberships -->
<g id="edge12" class="edge">
<title>app.lesson_occurrences:e&#45;&gt;app.memberships:w</title>
<g id="a_edge12"><a xlink:title="school_id, member_id → school_id, id">
<path fill="none" stroke="#8191a8" d="M107,-919C107,-919 247.83,-810.17 277.54,-787.22"/>
<polygon fill="#8191a8" stroke="#8191a8" points="279.25,-788.77 283,-783 276.47,-785.17 279.25,-788.77"/>
</a>
</g>
<text text-anchor="middle" x="229.5" y="-832.6" font-family="DejaVu Sans" font-size="8.00">N → 1</text>
</g>
<!-- app.lesson_occurrences&#45;&gt;app.subjects -->
<g id="edge11" class="edge">
<title>app.lesson_occurrences:e&#45;&gt;app.subjects:w</title>
<g id="a_edge11"><a xlink:title="school_id, subject_id → school_id, id">
<path fill="none" stroke="#8191a8" d="M107,-944C107,-944 289.42,-923.82 326.48,-919.72"/>
<polygon fill="#8191a8" stroke="#8191a8" points="326.79,-921.98 333,-919 326.29,-917.45 326.79,-921.98"/>
</a>
</g>
<text text-anchor="middle" x="229.5" y="-933.6" font-family="DejaVu Sans" font-size="8.00">N → 1</text>
</g>
<!-- app.lesson_occurrences&#45;&gt;app.rooms -->
<g id="edge13" class="edge">
<title>app.lesson_occurrences:e&#45;&gt;app.rooms:w</title>
<g id="a_edge13"><a xlink:title="school_id, room_id → school_id, id">
<path fill="none" stroke="#8191a8" d="M107,-894C107,-894 241,-748 241,-748 241,-748 281,-656 281,-656 281,-656 315.17,-591.93 325.85,-571.91"/>
<polygon fill="#8191a8" stroke="#8191a8" points="327.95,-572.81 329,-566 323.93,-570.66 327.95,-572.81"/>
</a>
</g>
<text text-anchor="middle" x="229.5" y="-774.6" font-family="DejaVu Sans" font-size="8.00">N → 1</text>
</g>
<!-- app.lesson_occurrences&#45;&gt;app.timetable_versions -->
<g id="edge10" class="edge">
<title>app.lesson_occurrences:e&#45;&gt;app.timetable_versions:w</title>
<g id="a_edge10"><a xlink:title="school_id, timetable_id, class_id → school_id, id, class_id">
<path fill="none" stroke="#8191a8" d="M107,-969C107,-969 279.95,-1187.9 309.68,-1225.53"/>
<polygon fill="#8191a8" stroke="#8191a8" points="308.19,-1227.31 314,-1231 311.76,-1224.49 308.19,-1227.31"/>
</a>
</g>
<text text-anchor="middle" x="229.5" y="-1133.6" font-family="DejaVu Sans" font-size="8.00">N → 1</text>
</g>
<!-- app.duty_schedules -->
<g id="node11" class="node">
<title>app.duty_schedules</title>
<polygon fill="#6e58ad" stroke="transparent" points="326,-386 326,-411 467,-411 467,-386 326,-386"/>
<polygon fill="none" stroke="#d7dfe9" points="326,-386 326,-411 467,-411 467,-386 326,-386"/>
<text text-anchor="start" x="333" y="-397" font-family="DejaVu Sans" font-weight="bold" font-size="10.00" fill="white">app.duty_schedules</text>
<polygon fill="none" stroke="#d7dfe9" points="326,-361 326,-386 467,-386 467,-361 326,-361"/>
<text text-anchor="start" x="333" y="-371" font-family="DejaVu Sans" font-size="10.00">Lịch trực nhật của lớp</text>
<polygon fill="none" stroke="#d7dfe9" points="326,-336 326,-361 410,-361 410,-336 326,-336"/>
<text text-anchor="start" x="333" y="-346" font-family="DejaVu Sans" font-size="10.00">PK id</text>
<polygon fill="none" stroke="#d7dfe9" points="410,-336 410,-361 467,-361 467,-336 410,-336"/>
<text text-anchor="start" x="417" y="-346" font-family="DejaVu Sans" font-size="10.00" fill="#66758a">uuid *</text>
<polygon fill="none" stroke="#d7dfe9" points="326,-311 326,-336 410,-336 410,-311 326,-311"/>
<text text-anchor="start" x="333" y="-321" font-family="DejaVu Sans" font-size="10.00">FK school_id</text>
<polygon fill="none" stroke="#d7dfe9" points="410,-311 410,-336 467,-336 467,-311 410,-311"/>
<text text-anchor="start" x="417" y="-321" font-family="DejaVu Sans" font-size="10.00" fill="#66758a">uuid *</text>
<polygon fill="none" stroke="#d7dfe9" points="326,-286 326,-311 410,-311 410,-286 326,-286"/>
<text text-anchor="start" x="333" y="-296" font-family="DejaVu Sans" font-size="10.00">FK class_id</text>
<polygon fill="none" stroke="#d7dfe9" points="410,-286 410,-311 467,-311 467,-286 410,-286"/>
<text text-anchor="start" x="417" y="-296" font-family="DejaVu Sans" font-size="10.00" fill="#66758a">uuid *</text>
<polygon fill="none" stroke="#d7dfe9" points="326,-261 326,-286 410,-286 410,-261 326,-261"/>
<text text-anchor="start" x="333" y="-271" font-family="DejaVu Sans" font-size="10.00">FK year_id</text>
<polygon fill="none" stroke="#d7dfe9" points="410,-261 410,-286 467,-286 467,-261 410,-261"/>
<text text-anchor="start" x="417" y="-271" font-family="DejaVu Sans" font-size="10.00" fill="#66758a">uuid *</text>
<polygon fill="none" stroke="#d7dfe9" points="326,-236 326,-261 410,-261 410,-236 326,-236"/>
<text text-anchor="start" x="333" y="-246" font-family="DejaVu Sans" font-size="10.00">starts_on</text>
<polygon fill="none" stroke="#d7dfe9" points="410,-236 410,-261 467,-261 467,-236 410,-236"/>
<text text-anchor="start" x="417" y="-246" font-family="DejaVu Sans" font-size="10.00" fill="#66758a">date *</text>
<polygon fill="none" stroke="#d7dfe9" points="326,-211 326,-236 410,-236 410,-211 326,-211"/>
<text text-anchor="start" x="333" y="-221" font-family="DejaVu Sans" font-size="10.00">ends_on</text>
<polygon fill="none" stroke="#d7dfe9" points="410,-211 410,-236 467,-236 467,-211 410,-211"/>
<text text-anchor="start" x="417" y="-221" font-family="DejaVu Sans" font-size="10.00" fill="#66758a">date *</text>
<polygon fill="none" stroke="#d7dfe9" points="326,-186 326,-211 410,-211 410,-186 326,-186"/>
<text text-anchor="start" x="333" y="-196" font-family="DejaVu Sans" font-size="10.00">status</text>
<polygon fill="none" stroke="#d7dfe9" points="410,-186 410,-211 467,-211 467,-186 410,-186"/>
<text text-anchor="start" x="417" y="-196" font-family="DejaVu Sans" font-size="10.00" fill="#66758a">text *</text>
<polygon fill="none" stroke="#d7dfe9" points="326,-161 326,-186 410,-186 410,-161 326,-161"/>
<text text-anchor="start" x="333" y="-171" font-family="DejaVu Sans" font-size="10.00">FK created_by</text>
<polygon fill="none" stroke="#d7dfe9" points="410,-161 410,-186 467,-186 467,-161 410,-161"/>
<text text-anchor="start" x="417" y="-171" font-family="DejaVu Sans" font-size="10.00" fill="#66758a">uuid *</text>
<polygon fill="none" stroke="#d7dfe9" points="326,-136 326,-161 410,-161 410,-136 326,-136"/>
<text text-anchor="start" x="333" y="-146" font-family="DejaVu Sans" font-size="10.00">version</text>
<polygon fill="none" stroke="#d7dfe9" points="410,-136 410,-161 467,-161 467,-136 410,-136"/>
<text text-anchor="start" x="417" y="-146" font-family="DejaVu Sans" font-size="10.00" fill="#66758a">integer *</text>
</g>
<!-- app.duty_schedules&#45;&gt;identity.users -->
<g id="edge16" class="edge">
<title>app.duty_schedules:e&#45;&gt;identity.users:w</title>
<g id="a_edge16"><a xlink:title="created_by → id">
<path fill="none" stroke="#8191a8" d="M411,-173C411,-173 582.93,-244.03 617.86,-258.46"/>
<polygon fill="#8191a8" stroke="#8191a8" points="617.12,-260.62 624,-261 618.86,-256.42 617.12,-260.62"/>
</a>
</g>
<text text-anchor="middle" x="562.5" y="-242.6" font-family="DejaVu Sans" font-size="8.00">N → 1</text>
</g>
<!-- app.duty_schedules&#45;&gt;platform.schools -->
<g id="edge14" class="edge">
<title>app.duty_schedules:e&#45;&gt;platform.schools:w</title>
<g id="a_edge14"><a xlink:title="school_id → id">
<path fill="none" stroke="#8191a8" d="M411,-324C411,-324 574,-447 574,-447 574,-447 606.71,-654.71 612.97,-694.47"/>
<polygon fill="#8191a8" stroke="#8191a8" points="610.74,-694.93 614,-701 615.24,-694.23 610.74,-694.93"/>
</a>
</g>
<text text-anchor="middle" x="562.5" y="-449.6" font-family="DejaVu Sans" font-size="8.00">N → 1</text>
</g>
<!-- app.duty_schedules&#45;&gt;app.classes -->
<g id="edge15" class="edge">
<title>app.duty_schedules:e&#45;&gt;app.classes:w</title>
<g id="a_edge15"><a xlink:title="school_id, class_id, year_id → school_id, id, year_id">
<path fill="none" stroke="#8191a8" d="M411,-299C411,-299 574,-375 574,-375 574,-375 605.39,-490.61 613.24,-519.51"/>
<polygon fill="#8191a8" stroke="#8191a8" points="611.1,-520.32 615,-526 615.49,-519.13 611.1,-520.32"/>
</a>
</g>
<text text-anchor="middle" x="562.5" y="-377.6" font-family="DejaVu Sans" font-size="8.00">N → 1</text>
</g>
<!-- app.duty_assignments -->
<g id="node12" class="node">
<title>app.duty_assignments</title>
<polygon fill="#6e58ad" stroke="transparent" points="12,-462 12,-487 167,-487 167,-462 12,-462"/>
<polygon fill="none" stroke="#d7dfe9" points="12,-462 12,-487 167,-487 167,-462 12,-462"/>
<text text-anchor="start" x="19" y="-473" font-family="DejaVu Sans" font-weight="bold" font-size="10.00" fill="white">app.duty_assignments</text>
<polygon fill="none" stroke="#d7dfe9" points="12,-437 12,-462 167,-462 167,-437 12,-437"/>
<text text-anchor="start" x="19" y="-447" font-family="DejaVu Sans" font-size="10.00">Nhiệm vụ từng học sinh</text>
<polygon fill="none" stroke="#d7dfe9" points="12,-412 12,-437 110,-437 110,-412 12,-412"/>
<text text-anchor="start" x="19" y="-422" font-family="DejaVu Sans" font-size="10.00">PK id</text>
<polygon fill="none" stroke="#d7dfe9" points="110,-412 110,-437 167,-437 167,-412 110,-412"/>
<text text-anchor="start" x="117" y="-422" font-family="DejaVu Sans" font-size="10.00" fill="#66758a">uuid *</text>
<polygon fill="none" stroke="#d7dfe9" points="12,-387 12,-412 110,-412 110,-387 12,-387"/>
<text text-anchor="start" x="19" y="-397" font-family="DejaVu Sans" font-size="10.00">FK school_id</text>
<polygon fill="none" stroke="#d7dfe9" points="110,-387 110,-412 167,-412 167,-387 110,-387"/>
<text text-anchor="start" x="117" y="-397" font-family="DejaVu Sans" font-size="10.00" fill="#66758a">uuid *</text>
<polygon fill="none" stroke="#d7dfe9" points="12,-362 12,-387 110,-387 110,-362 12,-362"/>
<text text-anchor="start" x="19" y="-372" font-family="DejaVu Sans" font-size="10.00">FK class_id</text>
<polygon fill="none" stroke="#d7dfe9" points="110,-362 110,-387 167,-387 167,-362 110,-362"/>
<text text-anchor="start" x="117" y="-372" font-family="DejaVu Sans" font-size="10.00" fill="#66758a">uuid *</text>
<polygon fill="none" stroke="#d7dfe9" points="12,-337 12,-362 110,-362 110,-337 12,-337"/>
<text text-anchor="start" x="19" y="-347" font-family="DejaVu Sans" font-size="10.00">FK schedule_id</text>
<polygon fill="none" stroke="#d7dfe9" points="110,-337 110,-362 167,-362 167,-337 110,-337"/>
<text text-anchor="start" x="117" y="-347" font-family="DejaVu Sans" font-size="10.00" fill="#66758a">uuid *</text>
<polygon fill="none" stroke="#d7dfe9" points="12,-312 12,-337 110,-337 110,-312 12,-312"/>
<text text-anchor="start" x="19" y="-322" font-family="DejaVu Sans" font-size="10.00">FK enrollment_id</text>
<polygon fill="none" stroke="#d7dfe9" points="110,-312 110,-337 167,-337 167,-312 110,-312"/>
<text text-anchor="start" x="117" y="-322" font-family="DejaVu Sans" font-size="10.00" fill="#66758a">uuid *</text>
<polygon fill="none" stroke="#d7dfe9" points="12,-287 12,-312 110,-312 110,-287 12,-287"/>
<text text-anchor="start" x="19" y="-297" font-family="DejaVu Sans" font-size="10.00">status</text>
<polygon fill="none" stroke="#d7dfe9" points="110,-287 110,-312 167,-312 167,-287 110,-287"/>
<text text-anchor="start" x="117" y="-297" font-family="DejaVu Sans" font-size="10.00" fill="#66758a">text *</text>
<polygon fill="none" stroke="#d7dfe9" points="12,-262 12,-287 110,-287 110,-262 12,-262"/>
<text text-anchor="start" x="19" y="-272" font-family="DejaVu Sans" font-size="10.00">version</text>
<polygon fill="none" stroke="#d7dfe9" points="110,-262 110,-287 167,-287 167,-262 110,-262"/>
<text text-anchor="start" x="117" y="-272" font-family="DejaVu Sans" font-size="10.00" fill="#66758a">integer *</text>
</g>
<!-- app.duty_assignments&#45;&gt;platform.schools -->
<g id="edge17" class="edge">
<title>app.duty_assignments:e&#45;&gt;platform.schools:w</title>
<g id="a_edge17"><a xlink:title="school_id → id">
<path fill="none" stroke="#8191a8" d="M111,-400C111,-400 511,-502 511,-502 511,-502 574,-552 574,-552 574,-552 604.62,-666.08 612.28,-694.6"/>
<polygon fill="#8191a8" stroke="#8191a8" points="610.12,-695.31 614,-701 614.51,-694.13 610.12,-695.31"/>
</a>
</g>
<text text-anchor="middle" x="396" y="-504.6" font-family="DejaVu Sans" font-size="8.00">N → 1</text>
</g>
<!-- app.duty_assignments&#45;&gt;app.enrollments -->
<g id="edge19" class="edge">
<title>app.duty_assignments:e&#45;&gt;app.enrollments:w</title>
<g id="a_edge19"><a xlink:title="school_id, enrollment_id, class_id → school_id, id, class_id">
<path fill="none" stroke="#8191a8" d="M111,-324C111,-324 253.64,-83.18 277.6,-42.73"/>
<polygon fill="#8191a8" stroke="#8191a8" points="279.64,-43.75 281,-37 275.73,-41.43 279.64,-43.75"/>
</a>
</g>
<text text-anchor="middle" x="229.5" y="-141.6" font-family="DejaVu Sans" font-size="8.00">N → 1</text>
</g>
<!-- app.duty_assignments&#45;&gt;app.duty_schedules -->
<g id="edge18" class="edge">
<title>app.duty_assignments:e&#45;&gt;app.duty_schedules:w</title>
<g id="a_edge18"><a xlink:title="school_id, schedule_id, class_id → school_id, id, class_id">
<path fill="none" stroke="#8191a8" d="M111,-349C111,-349 282.24,-349 318.36,-349"/>
<polygon fill="#8191a8" stroke="#8191a8" points="318.5,-351.28 325,-349 318.5,-346.73 318.5,-351.28"/>
</a>
</g>
<text text-anchor="middle" x="229.5" y="-351.6" font-family="DejaVu Sans" font-size="8.00">N → 1</text>
</g>
</g>
</svg>
